<?xml version="1.0" encoding="UTF-8" ?>
<!DOCTYPE svg PUBLIC "-//W3C//DTD SVG 1.1//EN" "http://www.w3.org/Graphics/SVG/1.1/DTD/svg11.dtd">
<svg width="143pt" height="107pt" viewBox="0 0 143 107" version="1.1" xmlns="http://www.w3.org/2000/svg">
<g id="#4d4771ff">
<path fill="#4d4771" opacity="1.00" d=" M 81.62 12.55 C 84.35 12.06 88.07 11.48 89.81 14.26 C 91.75 16.98 90.63 20.72 89.38 23.54 C 81.38 43.57 73.55 63.66 65.60 83.71 C 64.28 86.79 63.70 90.63 60.52 92.43 C 57.91 93.18 55.10 92.73 52.89 91.16 C 52.08 89.21 50.84 87.07 51.84 84.94 C 60.60 62.39 69.61 39.95 78.39 17.41 C 79.11 15.60 79.80 13.55 81.62 12.55 Z" />
<path fill="#4d4771" opacity="1.00" d=" M 37.19 28.40 C 40.13 26.60 44.39 28.04 45.72 31.18 C 47.46 34.13 45.89 38.30 42.78 39.59 C 35.42 43.28 27.97 46.81 20.56 50.39 C 19.34 51.15 17.45 51.39 17.11 53.05 C 25.06 56.57 32.64 60.89 40.50 64.64 C 42.72 65.74 45.57 67.19 45.70 70.01 C 46.15 72.20 45.23 74.23 44.14 76.06 C 41.94 77.22 39.28 78.31 36.91 76.89 C 28.07 72.40 19.17 67.98 10.41 63.33 C 5.10 60.34 2.85 53.43 5.06 47.80 C 6.39 44.50 9.21 41.97 12.41 40.51 C 20.69 36.53 28.92 32.42 37.19 28.40 Z" />
<path fill="#4d4771" opacity="1.00" d=" M 93.39 29.17 C 95.11 27.67 97.71 27.08 99.77 28.24 C 108.62 32.43 117.42 36.74 126.20 41.07 C 130.36 43.03 132.96 47.46 133.57 51.91 C 133.53 56.86 130.53 61.85 125.99 63.99 C 117.36 68.34 108.75 72.76 100.08 77.04 C 95.38 79.49 89.59 73.53 91.99 68.88 C 92.78 66.44 95.36 65.55 97.39 64.41 C 105.04 60.61 112.56 56.58 120.28 52.91 C 119.37 51.24 117.39 50.79 115.85 49.93 C 108.68 46.40 101.47 42.97 94.35 39.35 C 90.53 37.54 90.01 31.64 93.39 29.17 Z" />
</g>
</svg>
