<?xml version="1.0" encoding="utf-8"?>
<!-- Generator: Adobe Illustrator 24.0.0, SVG Export Plug-In . SVG Version: 6.00 Build 0)  -->
<svg version="1.1" id="Layer_1" xmlns="http://www.w3.org/2000/svg" xmlns:xlink="http://www.w3.org/1999/xlink" x="0px" y="0px"
	 width="550px" height="421.3px" viewBox="0 0 550 421.3" style="enable-background:new 0 0 550 421.3;" xml:space="preserve">
<style type="text/css">
	.st0{display:none;}
	.st1{display:inline;}
	.st2{fill:#EBECEE;}
	.st3{fill:url(#SVGID_1_);}
	.st4{clip-path:url(#SVGID_3_);}
	.st5{clip-path:url(#SVGID_5_);}
	.st6{clip-path:url(#SVGID_7_);}
	.st7{fill:#FEFFFF;}
	.st8{opacity:0.5;fill:none;stroke:#ACB4BC;stroke-miterlimit:10;enable-background:new    ;}
	.st9{display:none;fill:#DBDBDB;}
	.st10{fill:#ACB4BC;}
	.st11{fill-rule:evenodd;clip-rule:evenodd;fill:#FFFFFF;}
	.st12{opacity:0.5;fill-rule:evenodd;clip-rule:evenodd;fill:#CCCCCA;enable-background:new    ;}
	.st13{fill-rule:evenodd;clip-rule:evenodd;fill:#E8E6E6;}
	.st14{opacity:0.5;fill:none;stroke:#CCCCCA;stroke-miterlimit:10;enable-background:new    ;}
	.st15{opacity:0.5;fill:none;stroke:#CCCCCA;stroke-width:3;stroke-miterlimit:10;enable-background:new    ;}
	.st16{fill:#FFFFFF;}
	.st17{opacity:0.5;fill:none;stroke:#CCCCCA;stroke-width:4;stroke-miterlimit:10;enable-background:new    ;}
	.st18{fill:#007FFF;}
	.st19{fill:none;}
	.st20{fill:none;stroke:#E7E6E6;stroke-miterlimit:10;}
	.st21{display:inline;fill:none;}
	.st22{display:inline;fill:#3756A3;}
</style>
<g id="Layer_2_1_" className="st0">
	<g id="phone" className="st1">
		<g id="morse_cm">
			<circle className="st2" cx="-351" cy="19.8" r="38"/>
			<path className="st2" d="M-523.7,75.6l76.9-44.4c18.2-10.5,41.5-4.3,52,13.9l0,0c10.5,18.2,4.3,41.5-13.9,52l-76.9,44.4
				c-18.2,10.5-41.5,4.3-52-13.9l0,0C-548.1,109.4-541.9,86.1-523.7,75.6z"/>
			<path className="st2" d="M-479.3,152.5l76.9-44.4c18.2-10.5,41.5-4.3,52,13.9l0,0c10.5,18.2,4.3,41.5-13.9,52l-76.9,44.4
				c-18.2,10.5-41.5,4.3-52-13.9l0,0C-503.8,186.2-497.5,163-479.3,152.5z"/>
			<path className="st2" d="M-325.6,63.7l76.9-44.4c18.2-10.5,41.5-4.3,52,13.9l0,0c10.5,18.2,4.3,41.5-13.9,52l-76.9,44.4
				c-18.2,10.5-41.5,4.3-52-13.9l0,0C-350,97.5-343.8,74.2-325.6,63.7z"/>
			<circle className="st2" cx="-120.4" cy="-113.3" r="38"/>
			<path className="st2" d="M-293.1-57.5l76.8-44.4c18.2-10.5,41.5-4.3,52,13.9l0,0c10.5,18.2,4.3,41.5-13.9,52l-76.9,44.4
				c-18.2,10.5-41.5,4.3-52-13.9l0,0C-317.6-23.8-311.3-47-293.1-57.5z"/>
		</g>
	</g>
</g>
<g id="Layer_3">
	
		<linearGradient id="SVGID_1_" gradientUnits="userSpaceOnUse" x1="579.8857" y1="501.0986" x2="1050.7291" y2="501.0986" gradientTransform="matrix(-0.9629 0.5077 -0.5204 -0.987 1326.0421 320.8734)">
		<stop  offset="0" style="stop-color:#97CBFF"/>
		<stop  offset="1" style="stop-color:#007EFD"/>
	</linearGradient>
	<path className="st3" d="M96.1,222.2l273.3-144c49.5-26.1,111.4-7,137.5,42.5l0,0c26.1,49.5,7,111.4-42.5,137.5L191,402.3
		c-49.5,26.1-111.4,7-137.5-42.6l0,0C27.5,310.2,46.6,248.3,96.1,222.2z"/>
</g>
<g id="Layer_9">
	<g>
		<g>
			<g>
				<g>
					<g>
						<g>
							<defs>
								<path id="SVGID_2_" d="M373.4,12H213.1c-17.5,0-31.6,14-31.6,31.2l-0.7,363.4c0,0-2.5,2.1,40.2-20.4
									c46-24.3,184.1-96.5,184.1-96.5V43.2C405.1,26,390.8,12,373.4,12z"/>
							</defs>
							<clipPath id="SVGID_3_">
								<use xlink:href="#SVGID_2_"  style="overflow:visible;"/>
							</clipPath>
							<g id="Layer_7_3_" className="st4">
							</g>
						</g>
					</g>
				</g>
			</g>
		</g>
		<g>
			<g>
				<g>
					<g>
						<g>
							<defs>
								<path id="SVGID_4_" d="M373.4,12H213.1c-17.5,0-31.6,14-31.6,31.2l-0.7,363.4c0,0-2.5,2.1,40.2-20.4
									c46-24.3,184.1-96.5,184.1-96.5V43.2C405.1,26,390.8,12,373.4,12z"/>
							</defs>
							<clipPath id="SVGID_5_">
								<use xlink:href="#SVGID_4_"  style="overflow:visible;"/>
							</clipPath>
							<g id="grid_2_" className="st5">
							</g>
						</g>
					</g>
				</g>
			</g>
		</g>
		<g>
			<g>
				<g>
					<g>
						<g>
							<defs>
								<path id="SVGID_6_" d="M373.4,12H213.1c-17.5,0-31.6,14-31.6,31.2l-0.7,363.4c0,0-2.5,2.1,40.2-20.4
									c46-24.3,184.1-96.5,184.1-96.5V43.2C405.1,26,390.8,12,373.4,12z"/>
							</defs>
							<clipPath id="SVGID_7_">
								<use xlink:href="#SVGID_6_"  style="overflow:visible;"/>
							</clipPath>
							<g id="text_tel_2_" className="st6">
								<path className="st7" d="M371.6,476H212.2c-16.9,0-30.5-13.7-30.5-30.5V45.7c0-16.9,13.7-30.5,30.5-30.5h159.4
									c16.9,0,30.5,13.8,30.5,30.5v399.7C402.2,462.2,388.3,476,371.6,476z"/>
								<path className="st8" d="M371.6,15H213.3c-17.3,0-31.2,14-31.2,31.2c0,6.4,0,392.7,0,398.4c0,17.3,13.9,31.2,31.2,31.2h158.3
									c17.3,0,31.2-13.9,31.2-31.2c0-5.7,0-392,0-398.4C402.8,29.1,388.7,15,371.6,15z M399.8,443.6c0,16.2-13.1,29.4-29.4,29.4
									h-156c-16.2,0-29.4-13.1-29.4-29.4c0-5.6,0-389.9,0-396.2c0-16.2,13.1-29.4,29.4-29.4h156c16.2,0,29.4,13.1,29.4,29.4
									C399.8,53.7,399.8,438,399.8,443.6z"/>
								<g>
									<path className="st9" d="M370.4,18.1h-156c-16.2,0-29.4,13.1-29.4,29.4c0,6.4,0,390.6,0,396.2c0,16.2,13.1,29.4,29.4,29.4h156
										c16.2,0,29.4-13.1,29.4-29.4c0-5.6,0-389.9,0-396.2C399.8,31.2,386.6,18.1,370.4,18.1z M398.2,442.7
										c0,15.8-12.9,28.7-28.7,28.7H215.3c-15.8,0-28.7-12.9-28.7-28.7c0-5.6,0-388.1,0-394.4c0-15.8,12.9-28.7,28.7-28.7h154.3
										c15.8,0,28.7,12.9,28.7,28.7C398.2,54.6,398.2,437.1,398.2,442.7z"/>
									<path className="st10" d="M370.4,473.1h-156c-16.2,0-29.5-13.1-29.5-29.5V47.4c0-16.2,13.1-29.5,29.5-29.5h156
										c16.2,0,29.5,13.1,29.5,29.5v396.2C399.9,459.8,386.7,473.1,370.4,473.1z M214.4,18.2c-16.1,0-29.1,13-29.1,29.1v396.2
										c0,16.1,13,29.1,29.1,29.1h156c16.1,0,29.1-13,29.1-29.1v-396c0-16.1-13-29.1-29.1-29.1L214.4,18.2L214.4,18.2z
										 M369.6,471.5H215.3c-15.9,0-28.8-12.9-28.8-28.8V48.2c0-15.9,12.9-28.8,28.8-28.8h154.3c15.9,0,28.8,12.9,28.8,28.8v394.4
										C398.4,458.6,385.4,471.5,369.6,471.5z M215.3,19.8c-15.7,0-28.6,12.7-28.6,28.6v394.4c0,15.7,12.7,28.6,28.6,28.6h154.3
										c15.7,0,28.6-12.7,28.6-28.6V48.4c0-15.7-12.7-28.6-28.6-28.6L215.3,19.8L215.3,19.8z"/>
								</g>
								<path className="st11" d="M367.9,471.2H217.3c-16.9,0-30.5-13.7-30.5-30.5V50.3c0-16.9,13.7-30.5,30.5-30.5h150.6
									c16.9,0,30.5,13.7,30.5,30.5v390.3C398.4,457.5,384.8,471.2,367.9,471.2z"/>
								<g id="text_tel_4_">
									<path className="st12" d="M302.8,99.8H206c-1.7,0-3.1-1.9-3.1-4.1V80.5c0-2.3,1.3-4.1,3.1-4.1h96.8c1.7,0,3.1,1.9,3.1,4.1v15.3
										C305.9,97.9,304.5,99.8,302.8,99.8z"/>
									<path className="st12" d="M229.6,59H205c-1.3,0-2.3-1.5-2.3-3.2v-0.3c0-1.9,1.1-3.2,2.3-3.2h24.6c1.3,0,2.3,1.5,2.3,3.2v0.3
										C231.9,57.5,230.8,59,229.6,59z"/>
									<path className="st13" d="M261.9,420.6h-56.8c-1.3,0-2.3-1.5-2.3-3.2v-0.3c0-1.9,1.1-3.2,2.3-3.2h56.8c1.3,0,2.3,1.5,2.3,3.2
										v0.3C264.2,419.2,263.1,420.6,261.9,420.6z"/>
									<line className="st14" x1="382" y1="215.4" x2="194.6" y2="215.4"/>
								</g>
							</g>
						</g>
					</g>
				</g>
			</g>
		</g>
	</g>
</g>
<g id="Layer_1_1_">
</g>
<g id="Layer_8">
</g>
<g id="Layer_6">
	<g>
		<path className="st15" d="M377.9,184.9c0,7.3-6,13.1-13.5,13.1H226.1c-7.4,0-13.5-5.9-13.5-13.1v-53.4c0-7.3,6-13.1,13.5-13.1h138.4
			c7.4,0,13.5,5.9,13.5,13.1L377.9,184.9L377.9,184.9z"/>
		<path className="st16" d="M376.9,183.9c0,7.3-6,13.1-13.5,13.1H225.1c-7.4,0-13.5-5.9-13.5-13.1v-53.4c0-7.3,6-13.1,13.5-13.1h138.4
			c7.4,0,13.5,5.9,13.5,13.1L376.9,183.9L376.9,183.9z"/>
	</g>
	<g>
		<g>
			<path className="st16" d="M317.8,350.3c0,12.4-8.8,22.5-19.7,22.5H95.3c-10.9,0-19.7-10.1-19.7-22.5v-91.9c0-12.4,8.8-22.5,19.7-22.5
				h202.8c10.9,0,19.7,10.1,19.7,22.5L317.8,350.3L317.8,350.3z"/>
			<path className="st16" d="M315.8,347.3c0,12.4-8.8,22.5-19.7,22.5H93.3c-10.9,0-19.7-10.1-19.7-22.5v-91.9c0-12.4,8.8-22.5,19.7-22.5
				h202.8c10.9,0,19.7,10.1,19.7,22.5L315.8,347.3L315.8,347.3z"/>
		</g>
		<g>
			<path className="st17" d="M317.8,350.3c0,12.4-8.8,22.5-19.7,22.5H95.3c-10.9,0-19.7-10.1-19.7-22.5v-91.9c0-12.4,8.8-22.5,19.7-22.5
				h202.8c10.9,0,19.7,10.1,19.7,22.5L317.8,350.3L317.8,350.3z"/>
			<path className="st16" d="M315.8,347.3c0,12.4-8.8,22.5-19.7,22.5H93.3c-10.9,0-19.7-10.1-19.7-22.5v-91.9c0-12.4,8.8-22.5,19.7-22.5
				h202.8c10.9,0,19.7,10.1,19.7,22.5L315.8,347.3L315.8,347.3z"/>
		</g>
	</g>
</g>
<g id="Layer_5">
	<path className="st18" d="M299.4,350c0,6.1-5,11.1-11.1,11.1h-95.2c-6.1,0-11.1-5-11.1-11.1l0,0c0-6.1,5-11.1,11.1-11.1h95.2
		C294.4,338.8,299.4,343.8,299.4,350L299.4,350z"/>
	<path className="st19" d="M193.1,338.6h116.2v12.8H193.1V338.6z"/>
	<path className="st16" d="M196.1,353.1l-2.6-6.2c0-0.1-0.1-0.2-0.1-0.4c0-0.4,0.4-0.7,0.7-0.7l0,0c0.4,0,0.6,0.2,0.7,0.5l2.2,5.4
		l2.2-5.5c0.1-0.2,0.4-0.5,0.6-0.5c0.4,0,0.7,0.2,0.7,0.6c0,0.1,0,0.2-0.1,0.2l-2.7,6.2c-0.1,0.4-0.4,0.6-0.8,0.6h-0.1
		C196.6,353.6,196.4,353.4,196.1,353.1z M200.8,351.8L200.8,351.8c0-1.3,0.9-1.9,2.3-1.9c0.6,0,1.1,0.1,1.5,0.2V350
		c0-0.8-0.5-1.3-1.4-1.3c-0.5,0-0.9,0.1-1.3,0.2c-0.1,0-0.1,0-0.2,0c-0.4,0-0.6-0.2-0.6-0.6l0,0c0-0.2,0.1-0.5,0.4-0.5
		c0.6-0.2,1.2-0.4,1.9-0.4c0.8,0,1.5,0.2,1.9,0.6c0.5,0.4,0.6,1.1,0.6,1.8v2.8c0,0.4-0.2,0.6-0.6,0.6l0,0c-0.4,0-0.6-0.2-0.6-0.6
		v-0.2c-0.4,0.5-0.9,0.8-1.9,0.8C201.8,353.6,200.8,353,200.8,351.8L200.8,351.8z M204.7,351.5v-0.4c-0.5-0.1-0.8-0.2-1.3-0.2
		c-0.8,0-1.3,0.4-1.3,0.9l0,0c0,0.6,0.5,0.8,1.1,0.8C204,352.7,204.7,352.2,204.7,351.5z M207.5,346.2c0-0.4,0.2-0.7,0.7-0.7
		c0.4,0,0.7,0.2,0.7,0.7v6.7c0,0.4-0.2,0.6-0.6,0.7l0,0c-0.4,0-0.6-0.2-0.7-0.6l0,0L207.5,346.2L207.5,346.2L207.5,346.2z
		 M210.6,346.3c0-0.4,0.4-0.6,0.7-0.6c0.4,0,0.7,0.2,0.7,0.6v0.1c0,0.4-0.4,0.7-0.7,0.7C210.9,347,210.6,346.8,210.6,346.3
		L210.6,346.3z M210.7,348.4c0-0.4,0.2-0.7,0.7-0.7c0.4,0,0.7,0.2,0.7,0.7v4.5c0,0.4-0.2,0.6-0.6,0.7l0,0c-0.4,0-0.6-0.2-0.7-0.6
		l0,0L210.7,348.4L210.7,348.4z M219.2,352.9c0,0.4-0.2,0.6-0.6,0.7l0,0c-0.4,0-0.7-0.2-0.7-0.6l0,0v-0.4c-0.5,0.6-1.1,1.1-2,1.1
		c-1.3,0-2.6-1.1-2.6-2.9l0,0c0-1.9,1.3-2.9,2.6-2.9c0.9,0,1.5,0.5,2,1.1v-2.5c0-0.4,0.2-0.7,0.7-0.7c0.4,0,0.7,0.2,0.7,0.7
		L219.2,352.9L219.2,352.9L219.2,352.9z M214.7,350.7L214.7,350.7c0,1.2,0.7,1.9,1.6,1.9c0.8,0,1.6-0.7,1.6-1.9l0,0
		c0-1.1-0.8-1.9-1.6-1.9C215.4,348.8,214.7,349.5,214.7,350.7z M220.5,351.8L220.5,351.8c0-1.3,0.9-1.9,2.3-1.9
		c0.6,0,1.1,0.1,1.5,0.2V350c0-0.8-0.5-1.3-1.4-1.3c-0.5,0-0.9,0.1-1.3,0.2c-0.1,0-0.1,0-0.2,0c-0.4,0-0.6-0.2-0.6-0.6l0,0
		c0-0.2,0.1-0.5,0.4-0.5c0.6-0.2,1.2-0.4,1.9-0.4c0.8,0,1.5,0.2,1.9,0.6c0.5,0.4,0.6,1.1,0.6,1.8v2.8c0,0.4-0.2,0.6-0.6,0.6l0,0
		c-0.4,0-0.6-0.2-0.6-0.6v-0.2c-0.4,0.5-0.9,0.8-1.9,0.8C221.4,353.6,220.5,353,220.5,351.8L220.5,351.8z M224.4,351.5v-0.4
		c-0.5-0.1-0.8-0.2-1.3-0.2c-0.8,0-1.3,0.4-1.3,0.9l0,0c0,0.6,0.5,0.8,1.1,0.8C223.7,352.7,224.4,352.2,224.4,351.5z M227.4,351.9
		v-3h-0.2c-0.4,0-0.6-0.2-0.6-0.6s0.2-0.6,0.6-0.6h0.2v-0.9c0-0.4,0.2-0.7,0.7-0.7c0.4,0,0.7,0.2,0.7,0.7v0.9h1.1
		c0.4,0,0.6,0.2,0.6,0.6s-0.2,0.6-0.6,0.6h-1.1v2.8c0,0.5,0.2,0.7,0.7,0.7c0.1,0,0.2,0,0.4,0s0.6,0.2,0.6,0.6c0,0.2-0.1,0.5-0.4,0.5
		c-0.2,0.1-0.6,0.1-0.9,0.1C228,353.6,227.4,353.2,227.4,351.9L227.4,351.9z M234,353.6c-1.6,0-2.9-1.2-2.9-2.9l0,0
		c0-1.6,1.2-2.9,2.8-2.9c1.8,0,2.7,1.5,2.7,2.8c0,0.4-0.2,0.6-0.6,0.6l0,0h-3.5c0.1,0.9,0.8,1.4,1.6,1.4c0.6,0,0.9-0.2,1.3-0.5
		c0.1-0.1,0.2-0.1,0.4-0.1s0.5,0.2,0.5,0.6c0,0.1-0.1,0.4-0.1,0.4C235.5,353.4,234.8,353.6,234,353.6L234,353.6z M235.3,350.3
		c-0.1-0.8-0.6-1.5-1.4-1.5c-0.8,0-1.4,0.6-1.5,1.5H235.3z M241.2,355.1c-0.2-0.1-0.4-0.2-0.4-0.6s0.2-0.6,0.6-0.6
		c0.1,0,0.1,0,0.2,0c0.1,0,0.2,0.1,0.5,0.1c0.4,0,0.6-0.1,0.8-0.6v-0.1l-2.1-4.7c0-0.1-0.1-0.2-0.1-0.4c0-0.4,0.2-0.6,0.7-0.6
		c0.4,0,0.5,0.2,0.6,0.5l1.5,3.7l1.4-3.7c0.1-0.2,0.2-0.5,0.6-0.5c0.4,0,0.6,0.2,0.6,0.6c0,0.1,0,0.2,0,0.4l-2.1,5
		c-0.5,1.2-1.1,1.6-1.9,1.6C241.7,355.2,241.5,355.2,241.2,355.1L241.2,355.1z M246.9,350.7L246.9,350.7c0-1.6,1.3-3,3-3
		s3,1.3,3,2.9l0,0c0,1.6-1.3,2.9-3,2.9C248.1,353.6,246.9,352.3,246.9,350.7L246.9,350.7z M251.5,350.7L251.5,350.7
		c0-1.1-0.7-1.9-1.8-1.9s-1.8,0.8-1.8,1.8l0,0c0,0.9,0.7,1.9,1.8,1.9C251,352.5,251.5,351.7,251.5,350.7L251.5,350.7z M259.3,352.9
		c0,0.4-0.4,0.7-0.7,0.7l0,0c-0.4,0-0.7-0.2-0.7-0.6l0,0v-0.2c-0.4,0.6-0.9,1.1-1.8,1.1c-1.3,0-2-0.8-2-2.2v-3
		c0-0.4,0.2-0.7,0.7-0.7c0.4,0,0.7,0.2,0.7,0.7v2.7c0,0.9,0.5,1.4,1.2,1.4s1.3-0.5,1.3-1.4v-2.6c0-0.4,0.2-0.7,0.7-0.7
		c0.4,0,0.7,0.2,0.7,0.7L259.3,352.9L259.3,352.9z M260.9,348.4c0-0.4,0.2-0.7,0.7-0.7s0.7,0.2,0.7,0.7v0.6c0.4-0.7,0.8-1.3,1.4-1.3
		c0.4,0,0.7,0.2,0.7,0.7c0,0.4-0.2,0.6-0.5,0.6c-0.9,0.1-1.5,0.8-1.5,2.2v1.6c0,0.4-0.4,0.7-0.7,0.7l0,0c-0.4,0-0.6-0.2-0.7-0.6l0,0
		v-4.6L260.9,348.4L260.9,348.4z M268.3,349.7L268.3,349.7c0-2.1,1.6-3.9,4-3.9s4,1.8,4,3.9l0,0c0,2.1-1.6,3.9-4,3.9
		S268.3,351.8,268.3,349.7z M274.8,349.7L274.8,349.7c0-1.5-1.1-2.7-2.6-2.7s-2.6,1.2-2.6,2.7l0,0c0,1.4,1.1,2.7,2.6,2.7
		S274.8,351.2,274.8,349.7z M279.3,347.1h-1.9c-0.4,0-0.6-0.2-0.6-0.6s0.2-0.6,0.6-0.6l0,0h5c0.4,0,0.6,0.2,0.6,0.6
		s-0.2,0.6-0.6,0.6h-1.9v5.7c0,0.4-0.4,0.7-0.7,0.7c-0.4,0-0.7-0.2-0.7-0.7L279.3,347.1L279.3,347.1z M284.3,346.7
		c0-0.4,0.2-0.7,0.7-0.7h2.3c1.8,0,2.8,1.1,2.8,2.5l0,0c0,1.6-1.4,2.6-3,2.6h-1.5v1.9c0,0.4-0.2,0.7-0.7,0.7l0,0
		c-0.4,0-0.7-0.2-0.7-0.6l0,0L284.3,346.7L284.3,346.7z M287.3,349.8c1.1,0,1.6-0.6,1.6-1.3l0,0c0-0.9-0.6-1.3-1.6-1.3h-1.5v2.7
		L287.3,349.8L287.3,349.8z"/>
	<path className="st20" d="M299.1,322.3c0,2.1-1.8,3.9-3.9,3.9H92.6c-2.1,0-3.9-1.8-3.9-3.9V313c0-2.1,1.8-3.9,3.9-3.9h202.6
		c2.1,0,3.9,1.8,3.9,3.9V322.3z"/>
	<g>
		<rect x="227.8" y="132.4" className="st19" width="150.3" height="51.4"/>
		<path d="M228.9,133.3c0-0.2,0.2-0.5,0.5-0.5h2.3c2.6,0,4.3,1.8,4.3,4.1l0,0c0,2.3-1.8,4.1-4.3,4.1h-2.3c-0.2,0-0.5-0.2-0.5-0.5
			V133.3z M231.8,140.1c2.1,0,3.4-1.4,3.4-3.2l0,0c0-1.8-1.3-3.3-3.4-3.3h-1.9v6.4h1.9V140.1z"/>
		<path d="M240.3,141.2c-1.6,0-3-1.3-3-3.2l0,0c0-1.8,1.2-3.2,2.9-3.2s2.8,1.4,2.8,3c0,0.2-0.2,0.5-0.5,0.5h-4.3
			c0.1,1.3,1.1,2,2.1,2c0.7,0,1.3-0.4,1.8-0.7c0.1,0,0.1-0.1,0.2-0.1c0.2,0,0.4,0.1,0.4,0.4c0,0.1,0,0.2-0.1,0.4
			C241.9,140.8,241.2,141.2,240.3,141.2z M242.1,137.7c-0.1-1.1-0.7-2.1-1.9-2.1c-1.1,0-1.9,0.8-2,2.1H242.1z"/>
		<path d="M243.8,139.2L243.8,139.2c0-1.3,1.1-2,2.6-2c0.8,0,1.3,0.1,1.9,0.2v-0.2c0-1.1-0.7-1.6-1.8-1.6c-0.6,0-1.2,0.1-1.5,0.4
			h-0.1c-0.2,0-0.4-0.1-0.4-0.4s0.1-0.4,0.2-0.4c0.6-0.2,1.2-0.5,2-0.5s1.5,0.2,2,0.7c0.4,0.5,0.6,0.9,0.6,1.8v3.3
			c0,0.2-0.2,0.5-0.5,0.5c-0.2,0-0.5-0.2-0.5-0.5v-0.6c-0.5,0.6-1.2,1.1-2.2,1.1C245,141.2,243.8,140.5,243.8,139.2z M248.3,138.7
			v-0.6c-0.5-0.1-1.1-0.2-1.8-0.2c-1.2,0-1.8,0.5-1.8,1.3l0,0c0,0.7,0.7,1.2,1.5,1.2C247.3,140.4,248.3,139.8,248.3,138.7z"/>
		<path d="M250.7,135.3c0-0.2,0.2-0.5,0.5-0.5c0.2,0,0.5,0.2,0.5,0.5v1.2c0.5-1.1,1.3-1.6,2.1-1.6c0.2,0,0.5,0.2,0.5,0.5
			s-0.1,0.5-0.4,0.5c-1.2,0.1-2.1,1.1-2.1,2.8v2.1c0,0.2-0.2,0.5-0.5,0.5c-0.2,0-0.5-0.2-0.5-0.5v-5.4
			C250.8,135.3,250.7,135.3,250.7,135.3z"/>
		<path d="M258.1,138L258.1,138c0-1.8,1.3-3.2,3-3.2c1.1,0,1.6,0.4,2.2,0.9c0.1,0,0.1,0.1,0.1,0.4s-0.2,0.5-0.5,0.5
			c-0.1,0-0.2,0-0.4-0.1c-0.5-0.4-0.9-0.7-1.6-0.7c-1.2,0-2.1,1.1-2.1,2.3l0,0c0,1.3,0.9,2.3,2.2,2.3c0.7,0,1.3-0.4,1.6-0.7
			c0-0.1,0.1-0.1,0.2-0.1c0.2,0,0.5,0.2,0.5,0.4c0,0.1,0,0.2-0.1,0.2c-0.6,0.6-1.3,0.9-2.2,0.9C259.4,141.2,258.1,139.7,258.1,138z"
			/>
		<path d="M270,140.6c0,0.2-0.2,0.5-0.5,0.5c-0.2,0-0.5-0.2-0.5-0.5v-0.7c-0.4,0.7-1.1,1.2-2.1,1.2c-1.4,0-2.3-0.9-2.3-2.5v-3.4
			c0-0.2,0.2-0.5,0.5-0.5c0.2,0,0.5,0.2,0.5,0.5v3.2c0,1.2,0.6,1.9,1.6,1.9c1.1,0,1.8-0.7,1.8-1.9v-3c0-0.2,0.2-0.5,0.5-0.5
			c0.2,0,0.5,0.2,0.5,0.5v5.3V140.6L270,140.6z"/>
		<path d="M271.5,140.4c-0.1,0-0.1-0.1-0.1-0.4s0.1-0.4,0.4-0.4c0.1,0,0.1,0,0.2,0.1c0.6,0.5,1.3,0.6,1.9,0.6c0.7,0,1.3-0.4,1.3-0.9
			l0,0c0-0.6-0.7-0.8-1.5-1.1c-0.9-0.2-2-0.6-2-1.8l0,0c0-1.1,0.8-1.8,2.1-1.8c0.6,0,1.3,0.2,1.9,0.5c0.1,0.1,0.2,0.2,0.2,0.4
			s-0.1,0.4-0.4,0.4c-0.1,0-0.1,0-0.2,0c-0.5-0.4-1.1-0.5-1.5-0.5c-0.7,0-1.2,0.4-1.2,0.8l0,0c0,0.6,0.7,0.8,1.5,1.1
			c0.9,0.2,2,0.6,2,1.8l0,0c0,1.2-0.9,1.8-2.1,1.8C273,141.1,272,140.8,271.5,140.4z"/>
		<path d="M277.4,139.4v-3.6H277c-0.2,0-0.4-0.2-0.4-0.4s0.2-0.4,0.4-0.4h0.5v-1.4c0-0.2,0.2-0.5,0.5-0.5c0.2,0,0.5,0.2,0.5,0.5v1.4
			h1.5c0.2,0,0.4,0.2,0.4,0.4s-0.2,0.4-0.4,0.4h-1.5v3.5c0,0.7,0.4,1.1,1.1,1.1c0.4,0,0.5-0.1,0.6-0.1c0.2,0,0.4,0.1,0.4,0.4
			c0,0.1-0.1,0.2-0.2,0.4c-0.2,0.1-0.6,0.1-0.9,0.1C278.2,141.1,277.4,140.6,277.4,139.4z"/>
		<path d="M281.1,138L281.1,138c0-1.8,1.3-3.2,3.2-3.2c1.8,0,3.2,1.4,3.2,3.2l0,0c0,1.8-1.3,3.2-3.2,3.2S281.1,139.7,281.1,138z
			 M286.4,138L286.4,138c0-1.3-0.9-2.3-2.2-2.3s-2.2,1.1-2.2,2.3l0,0c0,1.3,0.9,2.3,2.2,2.3S286.4,139.3,286.4,138z"/>
		<path d="M288.7,135.3c0-0.2,0.2-0.5,0.5-0.5s0.5,0.2,0.5,0.5v0.6c0.4-0.6,0.9-1.2,2-1.2c0.9,0,1.6,0.6,2,1.2
			c0.5-0.7,1.1-1.2,2.1-1.2c1.4,0,2.2,0.9,2.2,2.5v3.4c0,0.2-0.2,0.5-0.5,0.5c-0.2,0-0.5-0.2-0.5-0.5v-3.2c0-1.2-0.6-1.9-1.5-1.9
			s-1.6,0.7-1.6,1.9v3c0,0.2-0.2,0.5-0.5,0.5s-0.5-0.2-0.5-0.5v-3.2c0-1.2-0.6-1.8-1.5-1.8s-1.6,0.8-1.6,1.9v3
			c0,0.2-0.2,0.5-0.5,0.5c-0.2,0-0.5-0.2-0.5-0.5v-5.2C288.8,135.3,288.7,135.3,288.7,135.3z"/>
		<path d="M302.1,141.2c-1.6,0-3-1.3-3-3.2l0,0c0-1.8,1.2-3.2,2.9-3.2s2.8,1.4,2.8,3c0,0.2-0.2,0.5-0.5,0.5H300c0.1,1.3,1.1,2,2.1,2
			c0.7,0,1.3-0.4,1.8-0.7c0.1,0,0.1-0.1,0.2-0.1c0.2,0,0.4,0.1,0.4,0.4c0,0.1,0,0.2-0.1,0.4C303.9,140.8,303.2,141.2,302.1,141.2z
			 M304,137.7c-0.1-1.1-0.7-2.1-1.9-2.1c-1.1,0-1.9,0.8-2,2.1H304z"/>
		<path d="M306.2,135.3c0-0.2,0.2-0.5,0.5-0.5s0.5,0.2,0.5,0.5v1.2c0.5-1.1,1.3-1.6,2.1-1.6c0.2,0,0.5,0.2,0.5,0.5s-0.1,0.5-0.4,0.5
			c-1.2,0.1-2.1,1.1-2.1,2.8v2.1c0,0.2-0.2,0.5-0.5,0.5c-0.2,0-0.5-0.2-0.5-0.5v-5.4C306.4,135.3,306.2,135.3,306.2,135.3z"/>
		<path d="M309.3,142c0.5-0.2,0.7-0.5,0.7-0.9c-0.2,0-0.5-0.2-0.5-0.6v-0.2c0-0.4,0.2-0.6,0.6-0.6s0.6,0.2,0.6,0.6v0.2
			c0,0.7-0.1,1.2-0.5,1.4c-0.2,0.2-0.6,0.5-0.8,0.5c-0.1,0-0.2-0.1-0.2-0.2C309,142.1,309.2,142,309.3,142z"/>
		<path d="M315.3,142.7c-0.1,0-0.2-0.1-0.2-0.4s0.2-0.4,0.4-0.4s0.1,0,0.2,0c0.1,0.1,0.4,0.1,0.7,0.1c0.6,0,0.9-0.4,1.2-1.1v-0.1
			l-2.6-5.4c0-0.1,0-0.1,0-0.2c0-0.2,0.2-0.5,0.5-0.5c0.2,0,0.4,0.1,0.5,0.4l2.1,4.8l1.9-4.8c0.1-0.2,0.2-0.4,0.5-0.4
			s0.5,0.2,0.5,0.5c0,0.1,0,0.1,0,0.2l-2.3,5.6c-0.6,1.3-1.1,1.8-2,1.8C315.8,142.9,315.6,142.8,315.3,142.7z"/>
		<path d="M321.2,138L321.2,138c0-1.8,1.3-3.2,3.2-3.2c1.8,0,3.2,1.4,3.2,3.2l0,0c0,1.8-1.3,3.2-3.2,3.2
			C322.6,141.2,321.2,139.7,321.2,138z M326.6,138L326.6,138c0-1.3-0.9-2.3-2.2-2.3s-2.2,1.1-2.2,2.3l0,0c0,1.3,0.9,2.3,2.2,2.3
			C325.8,140.4,326.6,139.3,326.6,138z"/>
		<path d="M334.1,140.6c0,0.2-0.2,0.5-0.5,0.5c-0.2,0-0.5-0.2-0.5-0.5v-0.7c-0.4,0.7-1.1,1.2-2.1,1.2c-1.4,0-2.3-0.9-2.3-2.5v-3.4
			c0-0.2,0.2-0.5,0.5-0.5c0.2,0,0.5,0.2,0.5,0.5v3.2c0,1.2,0.6,1.9,1.6,1.9c1.1,0,1.8-0.7,1.8-1.9v-3c0-0.2,0.2-0.5,0.5-0.5
			c0.2,0,0.5,0.2,0.5,0.5v5.3V140.6L334.1,140.6z"/>
		<path d="M335.9,135.3c0-0.2,0.2-0.5,0.5-0.5s0.5,0.2,0.5,0.5v1.2c0.5-1.1,1.3-1.6,2.1-1.6c0.2,0,0.5,0.2,0.5,0.5s-0.1,0.5-0.4,0.5
			c-1.2,0.1-2.1,1.1-2.1,2.8v2.1c0,0.2-0.2,0.5-0.5,0.5s-0.5-0.2-0.5-0.5L335.9,135.3L335.9,135.3z"/>
		<path d="M343.4,137L343.4,137c0-2.2,1.6-4.2,4.2-4.2s4.2,2,4.2,4.2l0,0c0,2.2-1.6,4.2-4.2,4.2S343.4,139.2,343.4,137z M350.7,137
			L350.7,137c0-1.9-1.4-3.4-3.3-3.4s-3.2,1.5-3.2,3.4l0,0c0,1.9,1.4,3.4,3.3,3.4S350.7,138.8,350.7,137z"/>
		<path d="M355,133.7h-2.3c-0.2,0-0.5-0.2-0.5-0.5s0.2-0.5,0.5-0.5h5.7c0.2,0,0.5,0.2,0.5,0.5c0,0.2-0.2,0.5-0.5,0.5H356v6.9
			c0,0.2-0.2,0.5-0.5,0.5c-0.2,0-0.5-0.2-0.5-0.5V133.7L355,133.7z"/>
		<path d="M360.1,133.3c0-0.2,0.2-0.5,0.5-0.5h2.6c1.9,0,3,0.9,3,2.6l0,0c0,1.8-1.5,2.7-3.2,2.7h-2v2.5c0,0.2-0.2,0.5-0.5,0.5
			s-0.5-0.2-0.5-0.5v-7.3H360.1z M363,137.3c1.4,0,2.2-0.7,2.2-1.8l0,0c0-1.2-0.9-1.8-2.2-1.8h-2.1v3.6H363L363,137.3z"/>
		<path d="M229.1,149.8h-0.5c-0.2,0-0.4-0.2-0.4-0.4s0.1-0.4,0.4-0.4h0.5v-0.5c0-0.7,0.2-1.2,0.5-1.5c0.4-0.4,0.7-0.5,1.3-0.5
			c0.4,0,0.5,0,0.7,0.1c0.1,0,0.4,0.2,0.4,0.4s-0.2,0.5-0.5,0.4c-0.1,0-0.4-0.1-0.5-0.1c-0.7,0-1.1,0.5-1.1,1.3v0.5h1.5
			c0.2,0,0.4,0.1,0.4,0.4s-0.1,0.4-0.4,0.4h-1.5v4.8c0,0.2-0.2,0.5-0.5,0.5c-0.2,0-0.5-0.2-0.5-0.5L229.1,149.8L229.1,149.8z"/>
		<path d="M232.2,152.1L232.2,152.1c0-1.8,1.3-3.2,3.2-3.2c1.8,0,3.2,1.4,3.2,3.2l0,0c0,1.8-1.3,3.2-3.2,3.2
			C233.6,155.2,232.2,153.7,232.2,152.1z M237.6,152.1L237.6,152.1c0-1.3-0.9-2.3-2.2-2.3s-2.2,1.1-2.2,2.3l0,0
			c0,1.3,0.9,2.3,2.2,2.3C236.8,154.4,237.6,153.4,237.6,152.1z"/>
		<path d="M239.9,149.4c0-0.2,0.2-0.5,0.5-0.5c0.2,0,0.5,0.2,0.5,0.5v1.2c0.5-1.1,1.3-1.6,2.1-1.6c0.2,0,0.5,0.2,0.5,0.5
			s-0.1,0.5-0.4,0.5c-1.2,0.1-2.1,1.1-2.1,2.8v2.1c0,0.2-0.2,0.5-0.5,0.5c-0.2,0-0.5-0.2-0.5-0.5L239.9,149.4L239.9,149.4z"/>
		<path d="M247.6,149.4c0-0.2,0.2-0.5,0.5-0.5c0.2,0,0.5,0.2,0.5,0.5v1.2c0.5-1.1,1.3-1.6,2.1-1.6c0.2,0,0.5,0.2,0.5,0.5
			s-0.1,0.5-0.4,0.5c-1.2,0.1-2.1,1.1-2.1,2.8v2.1c0,0.2-0.2,0.5-0.5,0.5c-0.2,0-0.5-0.2-0.5-0.5L247.6,149.4L247.6,149.4z"/>
		<path d="M254.5,155.2c-1.6,0-3-1.3-3-3.2l0,0c0-1.8,1.2-3.2,2.9-3.2c1.8,0,2.8,1.4,2.8,3c0,0.2-0.2,0.5-0.5,0.5h-4.3
			c0.1,1.3,1.1,2,2.1,2c0.7,0,1.3-0.4,1.8-0.7c0.1,0,0.1-0.1,0.2-0.1c0.2,0,0.4,0.1,0.4,0.4c0,0.1,0,0.2-0.1,0.4
			C256.1,154.9,255.4,155.2,254.5,155.2z M256.2,151.7c-0.1-1.1-0.7-2.1-1.9-2.1c-1.1,0-1.9,0.8-2,2.1H256.2z"/>
		<path d="M258.6,156.3c-0.1-0.1-0.2-0.2-0.2-0.4s0.2-0.4,0.4-0.4c0.1,0,0.1,0,0.2,0.1c0.6,0.5,1.4,0.7,2.1,0.7
			c1.3,0,2.2-0.7,2.2-2.1v-0.9c-0.5,0.7-1.3,1.3-2.3,1.3c-1.4,0-2.8-1.1-2.8-2.8l0,0c0-1.8,1.4-2.8,2.8-2.8c1.2,0,1.9,0.6,2.3,1.2
			v-0.7c0-0.2,0.2-0.5,0.5-0.5c0.2,0,0.5,0.2,0.5,0.5v4.6c0,0.9-0.2,1.6-0.8,2.1c-0.6,0.6-1.3,0.8-2.3,0.8
			C260.2,157,259.4,156.8,258.6,156.3z M263.3,151.7L263.3,151.7c0-1.3-1.1-2.1-2.2-2.1c-1.2,0-2.1,0.8-2.1,2l0,0
			c0,1.2,0.9,2.1,2.1,2.1C262.2,153.8,263.3,153,263.3,151.7z"/>
		<path d="M265.9,147.1c0-0.4,0.2-0.5,0.5-0.5c0.4,0,0.6,0.2,0.6,0.5v0.1c0,0.2-0.2,0.5-0.6,0.5c-0.2,0-0.5-0.2-0.5-0.5V147.1z
			 M265.9,149.4c0-0.2,0.2-0.5,0.5-0.5c0.2,0,0.5,0.2,0.5,0.5v5.3c0,0.2-0.2,0.5-0.5,0.5s-0.5-0.2-0.5-0.5V149.4z"/>
		<path d="M268.4,154.4c-0.1,0-0.1-0.1-0.1-0.4s0.1-0.4,0.4-0.4c0.1,0,0.1,0,0.2,0.1c0.6,0.5,1.3,0.6,1.9,0.6c0.7,0,1.3-0.4,1.3-0.9
			l0,0c0-0.6-0.7-0.8-1.5-1.1c-0.9-0.2-2-0.6-2-1.8l0,0c0-1.1,0.8-1.8,2.1-1.8c0.6,0,1.3,0.2,1.9,0.5c0.1,0.1,0.2,0.2,0.2,0.4
			s-0.1,0.4-0.4,0.4c-0.1,0-0.1,0-0.2,0c-0.5-0.4-1.1-0.5-1.5-0.5c-0.7,0-1.2,0.4-1.2,0.8l0,0c0,0.6,0.7,0.8,1.5,1.1
			c0.9,0.2,2,0.6,2,1.8l0,0c0,1.2-0.9,1.8-2.1,1.8C269.9,155.1,269,154.9,268.4,154.4z"/>
		<path d="M274.4,153.5v-3.6h-0.5c-0.2,0-0.4-0.2-0.4-0.4s0.2-0.4,0.4-0.4h0.5v-1.4c0-0.2,0.2-0.5,0.5-0.5c0.2,0,0.5,0.2,0.5,0.5
			v1.4h1.5c0.2,0,0.4,0.2,0.4,0.4s-0.2,0.4-0.4,0.4h-1.5v3.5c0,0.7,0.4,1.1,1.1,1.1c0.4,0,0.5-0.1,0.6-0.1c0.2,0,0.4,0.1,0.4,0.4
			c0,0.1-0.1,0.2-0.2,0.4c-0.2,0.1-0.6,0.1-0.9,0.1C275.2,155.1,274.4,154.6,274.4,153.5z"/>
		<path d="M278.6,149.4c0-0.2,0.2-0.5,0.5-0.5c0.2,0,0.5,0.2,0.5,0.5v1.2c0.5-1.1,1.3-1.6,2.1-1.6c0.2,0,0.5,0.2,0.5,0.5
			s-0.1,0.5-0.4,0.5c-1.2,0.1-2.1,1.1-2.1,2.8v2.1c0,0.2-0.2,0.5-0.5,0.5s-0.5-0.2-0.5-0.5L278.6,149.4L278.6,149.4z"/>
		<path d="M282.2,153.2L282.2,153.2c0-1.3,1.1-2,2.6-2c0.8,0,1.3,0.1,1.9,0.2v-0.2c0-1.1-0.7-1.6-1.8-1.6c-0.6,0-1.2,0.1-1.5,0.4
			h-0.1c-0.2,0-0.4-0.1-0.4-0.4s0.1-0.4,0.2-0.4c0.6-0.2,1.2-0.5,2-0.5s1.5,0.2,2,0.7c0.4,0.5,0.6,0.9,0.6,1.8v3.3
			c0,0.2-0.2,0.5-0.5,0.5s-0.5-0.2-0.5-0.5v-0.6c-0.5,0.6-1.2,1.1-2.2,1.1C283.4,155.2,282.2,154.5,282.2,153.2z M286.7,152.8v-0.6
			c-0.5-0.1-1.1-0.2-1.8-0.2c-1.2,0-1.8,0.5-1.8,1.3l0,0c0,0.7,0.7,1.2,1.5,1.2C285.7,154.4,286.7,153.8,286.7,152.8z"/>
		<path d="M289.5,153.5v-3.6H289c-0.2,0-0.4-0.2-0.4-0.4s0.2-0.4,0.4-0.4h0.5v-1.4c0-0.2,0.2-0.5,0.5-0.5s0.5,0.2,0.5,0.5v1.4h1.5
			c0.2,0,0.4,0.2,0.4,0.4s-0.2,0.4-0.4,0.4h-1.5v3.5c0,0.7,0.4,1.1,1.1,1.1c0.4,0,0.5-0.1,0.6-0.1c0.2,0,0.4,0.1,0.4,0.4
			c0,0.1-0.1,0.2-0.2,0.4c-0.2,0.1-0.6,0.1-0.9,0.1C290.2,155.1,289.5,154.6,289.5,153.5z"/>
		<path d="M293.6,147.1c0-0.4,0.2-0.5,0.5-0.5c0.4,0,0.6,0.2,0.6,0.5v0.1c0,0.2-0.2,0.5-0.6,0.5c-0.2,0-0.5-0.2-0.5-0.5V147.1z
			 M293.7,149.4c0-0.2,0.2-0.5,0.5-0.5c0.2,0,0.5,0.2,0.5,0.5v5.3c0,0.2-0.2,0.5-0.5,0.5s-0.5-0.2-0.5-0.5V149.4z"/>
		<path d="M295.9,152.1L295.9,152.1c0-1.8,1.3-3.2,3.2-3.2c1.8,0,3.2,1.4,3.2,3.2l0,0c0,1.8-1.3,3.2-3.2,3.2
			C297.3,155.2,295.9,153.7,295.9,152.1z M301.3,152.1L301.3,152.1c0-1.3-0.9-2.3-2.2-2.3s-2.2,1.1-2.2,2.3l0,0
			c0,1.3,0.9,2.3,2.2,2.3C300.5,154.4,301.3,153.4,301.3,152.1z"/>
		<path d="M303.7,149.4c0-0.2,0.2-0.5,0.5-0.5s0.5,0.2,0.5,0.5v0.7c0.4-0.7,1.1-1.2,2.1-1.2c1.4,0,2.3,0.9,2.3,2.5v3.4
			c0,0.2-0.2,0.5-0.5,0.5c-0.2,0-0.5-0.2-0.5-0.5v-3.2c0-1.2-0.6-1.9-1.6-1.9c-1.1,0-1.8,0.7-1.8,1.9v3c0,0.2-0.2,0.5-0.5,0.5
			s-0.5-0.2-0.5-0.5v-5.3V149.4L303.7,149.4z"/>
		<path d="M313.7,147.1c0-0.4,0.2-0.5,0.5-0.5c0.4,0,0.6,0.2,0.6,0.5v0.1c0,0.2-0.2,0.5-0.6,0.5c-0.2,0-0.5-0.2-0.5-0.5V147.1z
			 M313.8,149.4c0-0.2,0.2-0.5,0.5-0.5c0.2,0,0.5,0.2,0.5,0.5v5.3c0,0.2-0.2,0.5-0.5,0.5s-0.5-0.2-0.5-0.5V149.4z"/>
		<path d="M316.2,154.4c-0.1,0-0.1-0.1-0.1-0.4s0.1-0.4,0.4-0.4c0.1,0,0.1,0,0.2,0.1c0.6,0.5,1.3,0.6,1.9,0.6c0.7,0,1.3-0.4,1.3-0.9
			l0,0c0-0.6-0.7-0.8-1.5-1.1c-0.9-0.2-2-0.6-2-1.8l0,0c0-1.1,0.8-1.8,2.1-1.8c0.6,0,1.3,0.2,1.9,0.5c0.1,0.1,0.2,0.2,0.2,0.4
			s-0.1,0.4-0.4,0.4c-0.1,0-0.1,0-0.2,0c-0.5-0.4-1.1-0.5-1.5-0.5c-0.7,0-1.2,0.4-1.2,0.8l0,0c0,0.6,0.7,0.8,1.5,1.1
			c0.9,0.2,2,0.6,2,1.8l0,0c0,1.2-0.9,1.8-2.1,1.8C317.7,155.1,316.9,154.9,316.2,154.4z"/>
		<path className="st18" d="M329.4,153.1h-4.1c-0.2,0-0.5-0.2-0.5-0.5c0-0.1,0-0.2,0.1-0.5l4.2-5.2c0.1-0.1,0.2-0.2,0.5-0.2
			s0.5,0.2,0.5,0.5v5.2h0.9c0.2,0,0.4,0.1,0.4,0.4s-0.2,0.4-0.4,0.4h-0.9v1.5c0,0.2-0.2,0.5-0.5,0.5c-0.2,0-0.5-0.2-0.5-0.5v-1.5
			L329.4,153.1L329.4,153.1z M329.4,152.3v-4.2l-3.4,4.2H329.4z"/>
		<path className="st18" d="M333.6,154.4c-0.7-0.7-1.1-1.5-1.1-3.2l0,0c0-2.5,1.3-4.5,3.4-4.5c0.8,0,1.5,0.2,2.1,0.7
			c0.1,0.1,0.2,0.2,0.2,0.4s-0.2,0.5-0.5,0.5c-0.1,0-0.2,0-0.2-0.1c-0.6-0.4-1.1-0.6-1.6-0.6c-1.5,0-2.5,1.5-2.3,3.6
			c0.5-0.7,1.2-1.3,2.3-1.3c1.5,0,2.8,0.9,2.8,2.5l0,0c0,1.5-1.3,2.7-2.9,2.7C334.9,155.2,334.1,154.9,333.6,154.4z M337.7,152.5
			L337.7,152.5c0-1.1-0.8-1.8-2-1.8s-2,0.8-2,1.8l0,0c0,1.1,0.8,1.9,2.1,1.9C337,154.4,337.7,153.6,337.7,152.5z"/>
		<path className="st18" d="M340.8,154.4l3.4-6.7h-4.1c-0.2,0-0.5-0.1-0.5-0.5c0-0.2,0.2-0.5,0.5-0.5h4.8c0.2,0,0.5,0.1,0.5,0.4
			c0,0.1,0,0.2-0.1,0.5l-3.5,7.1c-0.1,0.2-0.2,0.4-0.5,0.4s-0.5-0.1-0.5-0.5C340.8,154.6,340.8,154.5,340.8,154.4z"/>
		<path className="st18" d="M346.2,153.9c-0.1-0.1-0.1-0.2-0.1-0.4s0.2-0.5,0.5-0.5c0.1,0,0.2,0.1,0.4,0.1c0.6,0.7,1.3,1.1,2.2,1.1
			c0.9,0,1.8-0.6,1.8-1.6l0,0c0-1.1-0.9-1.5-2.3-1.5h-0.4c-0.2,0-0.4-0.1-0.4-0.4c0-0.1,0-0.2,0.2-0.4l2.3-2.7h-3.6
			c-0.2,0-0.5-0.1-0.5-0.4s0.2-0.5,0.5-0.5h4.5c0.2,0,0.5,0.1,0.5,0.4s-0.1,0.4-0.2,0.5l-2.5,2.7c1.4,0.1,2.7,0.8,2.7,2.3l0,0
			c0,1.4-1.2,2.5-2.7,2.5C347.7,155.2,346.8,154.6,346.2,153.9z"/>
		<path className="st18" d="M353.1,154.2c-0.1-0.1-0.2-0.2-0.2-0.4s0.2-0.5,0.5-0.5c0.1,0,0.2,0,0.4,0.1c0.6,0.6,1.3,0.9,2.1,0.9
			c1.2,0,2-0.7,2-1.8l0,0c0-1.1-0.8-1.8-2-1.8c-0.9,0-1.4,0.4-1.6,0.4c-0.1,0-0.4-0.1-0.5-0.1c-0.1-0.1-0.2-0.2-0.2-0.5l0.2-3.2
			c0-0.2,0.2-0.5,0.5-0.5h4c0.2,0,0.5,0.2,0.5,0.5s-0.2,0.5-0.5,0.5h-3.5l-0.1,2.6c0.5-0.2,0.9-0.4,1.6-0.4c1.6,0,2.8,0.9,2.8,2.5
			l0,0c0,1.5-1.2,2.7-2.9,2.7C354.7,155.2,353.8,154.8,353.1,154.2z"/>
		<path className="st18" d="M360,154.2c-0.1-0.1-0.2-0.2-0.2-0.4s0.2-0.5,0.5-0.5c0.1,0,0.2,0,0.4,0.1c0.6,0.6,1.3,0.9,2.1,0.9
			c1.2,0,2-0.7,2-1.8l0,0c0-1.1-0.8-1.8-2-1.8c-0.9,0-1.4,0.4-1.6,0.4c-0.1,0-0.4-0.1-0.5-0.1c-0.1-0.1-0.2-0.2-0.2-0.5l0.2-3.2
			c0-0.2,0.2-0.5,0.5-0.5h4c0.2,0,0.5,0.2,0.5,0.5s-0.2,0.5-0.5,0.5h-3.5l-0.1,2.6c0.5-0.2,0.9-0.4,1.6-0.4c1.6,0,2.8,0.9,2.8,2.5
			l0,0c0,1.5-1.2,2.7-2.9,2.7C361.5,155.2,360.6,154.8,360,154.2z"/>
		<path d="M367.4,153.7c0.4,0,0.6,0.2,0.6,0.6v0.2c0,0.4-0.2,0.6-0.6,0.6s-0.6-0.2-0.6-0.6v-0.2C366.8,153.9,367,153.7,367.4,153.7z
			"/>
		<path d="M228.8,165.7v-4.3c0-0.2,0.2-0.5,0.5-0.5c0.2,0,0.5,0.2,0.5,0.5v4.3c0,1.8,0.9,2.8,2.5,2.8c1.5,0,2.5-0.9,2.5-2.7v-4.3
			c0-0.2,0.2-0.5,0.5-0.5c0.2,0,0.5,0.2,0.5,0.5v4.3c0,2.3-1.4,3.6-3.4,3.6C230.1,169.3,228.8,168,228.8,165.7z"/>
		<path d="M237,168.5c-0.1,0-0.1-0.1-0.1-0.4s0.1-0.4,0.4-0.4c0.1,0,0.1,0,0.2,0.1c0.6,0.5,1.3,0.6,1.9,0.6c0.7,0,1.3-0.4,1.3-0.9
			l0,0c0-0.6-0.7-0.8-1.5-1.1c-0.9-0.2-2-0.6-2-1.8l0,0c0-1.1,0.8-1.8,2.1-1.8c0.6,0,1.3,0.2,1.9,0.5c0.1,0.1,0.2,0.2,0.2,0.4
			s-0.1,0.4-0.4,0.4c-0.1,0-0.1,0-0.2,0c-0.5-0.4-1.1-0.5-1.5-0.5c-0.7,0-1.2,0.4-1.2,0.8l0,0c0,0.6,0.7,0.8,1.5,1.1
			c0.9,0.2,2,0.6,2,1.8l0,0c0,1.2-0.9,1.8-2.1,1.8C238.5,169.2,237.7,168.9,237,168.5z"/>
		<path d="M245.6,169.3c-1.6,0-3-1.3-3-3.2l0,0c0-1.8,1.2-3.2,2.9-3.2s2.8,1.4,2.8,3c0,0.2-0.2,0.5-0.5,0.5h-4.3
			c0.1,1.3,1.1,2,2.1,2c0.7,0,1.3-0.4,1.8-0.7c0.1,0,0.1-0.1,0.2-0.1c0.2,0,0.4,0.1,0.4,0.4c0,0.1,0,0.2-0.1,0.4
			C247.2,168.9,246.5,169.3,245.6,169.3z M247.3,165.8c-0.1-1.1-0.7-2.1-1.9-2.1c-1.1,0-1.9,0.8-2,2.1H247.3z"/>
		<path d="M253.1,167.5v-3.6h-0.5c-0.2,0-0.4-0.2-0.4-0.4s0.2-0.4,0.4-0.4h0.5v-1.4c0-0.2,0.2-0.5,0.5-0.5c0.2,0,0.5,0.2,0.5,0.5
			v1.4h1.5c0.2,0,0.4,0.2,0.4,0.4s-0.2,0.4-0.4,0.4H254v3.5c0,0.7,0.4,1.1,1.1,1.1c0.4,0,0.5-0.1,0.6-0.1c0.2,0,0.4,0.1,0.4,0.4
			c0,0.1-0.1,0.2-0.2,0.4c-0.2,0.1-0.6,0.1-0.9,0.1C253.8,169.2,253.1,168.7,253.1,167.5z"/>
		<path d="M257.2,161c0-0.2,0.2-0.5,0.5-0.5c0.2,0,0.5,0.2,0.5,0.5v3.2c0.4-0.7,1.1-1.2,2.1-1.2c1.4,0,2.3,0.9,2.3,2.5v3.4
			c0,0.2-0.2,0.5-0.5,0.5c-0.2,0-0.5-0.2-0.5-0.5v-3.2c0-1.2-0.6-1.9-1.6-1.9c-1.1,0-1.8,0.7-1.8,1.9v3c0,0.2-0.2,0.5-0.5,0.5
			c-0.2,0-0.5-0.2-0.5-0.5V161L257.2,161z"/>
		<path d="M264.1,161.2c0-0.4,0.2-0.5,0.5-0.5c0.4,0,0.6,0.2,0.6,0.5v0.1c0,0.2-0.2,0.5-0.6,0.5c-0.2,0-0.5-0.2-0.5-0.5V161.2z
			 M264.2,163.4c0-0.2,0.2-0.5,0.5-0.5c0.2,0,0.5,0.2,0.5,0.5v5.3c0,0.2-0.2,0.5-0.5,0.5s-0.5-0.2-0.5-0.5V163.4z"/>
		<path d="M266.5,168.5c-0.1,0-0.1-0.1-0.1-0.4s0.1-0.4,0.4-0.4c0.1,0,0.1,0,0.2,0.1c0.6,0.5,1.3,0.6,1.9,0.6c0.7,0,1.3-0.4,1.3-0.9
			l0,0c0-0.6-0.7-0.8-1.5-1.1c-0.9-0.2-2-0.6-2-1.8l0,0c0-1.1,0.8-1.8,2.1-1.8c0.6,0,1.3,0.2,1.9,0.5c0.1,0.1,0.2,0.2,0.2,0.4
			s-0.1,0.4-0.4,0.4c-0.1,0-0.1,0-0.2,0c-0.5-0.4-1.1-0.5-1.5-0.5c-0.7,0-1.2,0.4-1.2,0.8l0,0c0,0.6,0.7,0.8,1.5,1.1
			c0.9,0.2,2,0.6,2,1.8l0,0c0,1.2-0.9,1.8-2.1,1.8C268.1,169.2,267.2,168.9,266.5,168.5z"/>
		<path d="M275.7,163.4c0-0.2,0.2-0.5,0.5-0.5c0.2,0,0.5,0.2,0.5,0.5v0.8c0.5-0.7,1.2-1.3,2.3-1.3c1.4,0,2.9,1.2,2.9,3.2l0,0
			c0,2-1.4,3.2-2.9,3.2c-1.2,0-1.9-0.6-2.3-1.3v2.6c0,0.2-0.2,0.5-0.5,0.5c-0.2,0-0.5-0.2-0.5-0.5V163.4z M280.8,166.1L280.8,166.1
			c0-1.4-0.9-2.3-2.1-2.3s-2.2,0.9-2.2,2.3l0,0c0,1.4,1.1,2.3,2.2,2.3C279.9,168.5,280.8,167.5,280.8,166.1z"/>
		<path d="M282.7,167.3L282.7,167.3c0-1.3,1.1-2,2.6-2c0.8,0,1.3,0.1,1.9,0.2v-0.2c0-1.1-0.7-1.6-1.8-1.6c-0.6,0-1.2,0.1-1.5,0.4
			h-0.1c-0.2,0-0.4-0.1-0.4-0.4c0-0.2,0.1-0.4,0.2-0.4c0.6-0.2,1.2-0.5,2-0.5s1.5,0.2,2,0.7c0.4,0.5,0.6,0.9,0.6,1.8v3.3
			c0,0.2-0.2,0.5-0.5,0.5s-0.5-0.2-0.5-0.5V168c-0.5,0.6-1.2,1.1-2.2,1.1C283.9,169.3,282.7,168.6,282.7,167.3z M287.1,166.8v-0.6
			c-0.5-0.1-1.1-0.2-1.8-0.2c-1.2,0-1.8,0.5-1.8,1.3l0,0c0,0.7,0.7,1.2,1.5,1.2C286.2,168.5,287.1,167.9,287.1,166.8z"/>
		<path d="M289.3,168.5c-0.1,0-0.1-0.1-0.1-0.4s0.1-0.4,0.4-0.4c0.1,0,0.1,0,0.2,0.1c0.6,0.5,1.3,0.6,1.9,0.6c0.7,0,1.3-0.4,1.3-0.9
			l0,0c0-0.6-0.7-0.8-1.5-1.1c-0.9-0.2-2-0.6-2-1.8l0,0c0-1.1,0.8-1.8,2.1-1.8c0.6,0,1.3,0.2,1.9,0.5c0.1,0.1,0.2,0.2,0.2,0.4
			s-0.1,0.4-0.4,0.4c-0.1,0-0.1,0-0.2,0c-0.5-0.4-1.1-0.5-1.5-0.5c-0.7,0-1.2,0.4-1.2,0.8l0,0c0,0.6,0.7,0.8,1.5,1.1
			c0.9,0.2,2,0.6,2,1.8l0,0c0,1.2-0.9,1.8-2.1,1.8C290.9,169.2,290,168.9,289.3,168.5z"/>
		<path d="M294.8,168.5c-0.1,0-0.1-0.1-0.1-0.4s0.1-0.4,0.4-0.4c0.1,0,0.1,0,0.2,0.1c0.6,0.5,1.3,0.6,1.9,0.6c0.7,0,1.3-0.4,1.3-0.9
			l0,0c0-0.6-0.7-0.8-1.5-1.1c-0.9-0.2-2-0.6-2-1.8l0,0c0-1.1,0.8-1.8,2.1-1.8c0.6,0,1.3,0.2,1.9,0.5c0.1,0.1,0.2,0.2,0.2,0.4
			s-0.1,0.4-0.4,0.4c-0.1,0-0.1,0-0.2,0c-0.5-0.4-1.1-0.5-1.5-0.5c-0.7,0-1.2,0.4-1.2,0.8l0,0c0,0.6,0.7,0.8,1.5,1.1
			c0.9,0.2,2,0.6,2,1.8l0,0c0,1.2-0.9,1.8-2.1,1.8C296.3,169.2,295.3,168.9,294.8,168.5z"/>
		<path d="M301.9,168.8l-1.9-5.2c0-0.1-0.1-0.1-0.1-0.2c0-0.2,0.2-0.5,0.5-0.5c0.2,0,0.4,0.1,0.5,0.4l1.5,4.6l1.5-4.6
			c0.1-0.2,0.2-0.4,0.5-0.4l0,0c0.2,0,0.4,0.1,0.5,0.4l1.5,4.6l1.5-4.6c0-0.2,0.2-0.4,0.5-0.4s0.5,0.2,0.5,0.5c0,0.1,0,0.1-0.1,0.2
			l-1.9,5.2c-0.1,0.2-0.2,0.5-0.5,0.5l0,0c-0.2,0-0.4-0.1-0.5-0.5l-1.5-4.5l-1.5,4.5c-0.1,0.2-0.2,0.5-0.5,0.5l0,0
			C302.3,169.2,302,169,301.9,168.8z"/>
		<path d="M309.6,166.1L309.6,166.1c0-1.8,1.3-3.2,3.2-3.2c1.8,0,3.2,1.4,3.2,3.2l0,0c0,1.8-1.3,3.2-3.2,3.2
			S309.6,167.8,309.6,166.1z M315,166.1L315,166.1c0-1.3-0.9-2.3-2.2-2.3s-2.2,1.1-2.2,2.3l0,0c0,1.3,0.9,2.3,2.2,2.3
			S315,167.4,315,166.1z"/>
		<path d="M317.2,163.4c0-0.2,0.2-0.5,0.5-0.5s0.5,0.2,0.5,0.5v1.2c0.5-1.1,1.3-1.6,2.1-1.6c0.2,0,0.5,0.2,0.5,0.5
			c0,0.2-0.1,0.5-0.4,0.5c-1.2,0.1-2.1,1.1-2.1,2.8v2.1c0,0.2-0.2,0.5-0.5,0.5s-0.5-0.2-0.5-0.5L317.2,163.4L317.2,163.4z"/>
		<path d="M327.2,168.7c0,0.2-0.2,0.5-0.5,0.5s-0.5-0.2-0.5-0.5v-0.8c-0.5,0.7-1.2,1.3-2.3,1.3c-1.4,0-2.9-1.2-2.9-3.2l0,0
			c0-2,1.4-3.2,2.9-3.2c1.2,0,1.9,0.6,2.3,1.3v-3.3c0-0.2,0.2-0.5,0.5-0.5c0.2,0,0.5,0.2,0.5,0.5V168.7z M322,166L322,166
			c0,1.4,0.9,2.3,2.1,2.3s2.2-0.9,2.2-2.3l0,0c0-1.4-1.1-2.3-2.2-2.3C323,163.8,322,164.6,322,166z"/>
		<path d="M332.5,167.5v-3.6H332c-0.2,0-0.4-0.2-0.4-0.4s0.2-0.4,0.4-0.4h0.5v-1.4c0-0.2,0.2-0.5,0.5-0.5c0.2,0,0.5,0.2,0.5,0.5v1.4
			h1.5c0.2,0,0.4,0.2,0.4,0.4s-0.2,0.4-0.4,0.4h-1.5v3.5c0,0.7,0.4,1.1,1.1,1.1c0.4,0,0.5-0.1,0.6-0.1c0.2,0,0.4,0.1,0.4,0.4
			c0,0.1-0.1,0.2-0.2,0.4c-0.2,0.1-0.6,0.1-0.9,0.1C333.2,169.2,332.5,168.7,332.5,167.5z"/>
		<path d="M336,166.1L336,166.1c0-1.8,1.3-3.2,3.2-3.2c1.8,0,3.2,1.4,3.2,3.2l0,0c0,1.8-1.3,3.2-3.2,3.2
			C337.4,169.3,336,167.8,336,166.1z M341.4,166.1L341.4,166.1c0-1.3-0.9-2.3-2.2-2.3s-2.2,1.1-2.2,2.3l0,0c0,1.3,0.9,2.3,2.2,2.3
			C340.5,168.5,341.4,167.4,341.4,166.1z"/>
		<path d="M231.2,183.2L231.2,183.2c-0.4,0-0.5-0.1-0.6-0.4l-2.2-5.2c0-0.1,0-0.1,0-0.2c0-0.2,0.2-0.5,0.5-0.5
			c0.2,0,0.4,0.1,0.5,0.4l2,4.7l2-4.8c0-0.1,0.2-0.4,0.5-0.4c0.2,0,0.5,0.2,0.5,0.5c0,0.1,0,0.1,0,0.2l-2.2,5.2
			C231.6,183.1,231.4,183.2,231.2,183.2z"/>
		<path d="M234.6,181.3L234.6,181.3c0-1.3,1.1-2,2.6-2c0.8,0,1.3,0.1,1.9,0.2v-0.2c0-1.1-0.7-1.6-1.8-1.6c-0.6,0-1.2,0.1-1.5,0.4
			h-0.1c-0.2,0-0.4-0.1-0.4-0.4s0.1-0.4,0.2-0.4c0.6-0.2,1.2-0.5,2-0.5s1.5,0.2,2,0.7c0.4,0.5,0.6,0.9,0.6,1.8v3.3
			c0,0.2-0.2,0.5-0.5,0.5c-0.2,0-0.5-0.2-0.5-0.5V182c-0.5,0.6-1.2,1.1-2.2,1.1C235.7,183.3,234.6,182.6,234.6,181.3z M239,180.9
			v-0.6c-0.5-0.1-1.1-0.2-1.8-0.2c-1.2,0-1.8,0.5-1.8,1.3l0,0c0,0.7,0.7,1.2,1.5,1.2C238.2,182.5,239,181.9,239,180.9z"/>
		<path d="M241.6,175c0-0.2,0.2-0.5,0.5-0.5c0.2,0,0.5,0.2,0.5,0.5v7.7c0,0.2-0.2,0.5-0.5,0.5c-0.2,0-0.5-0.2-0.5-0.5V175z"/>
		<path d="M244.3,175.3c0-0.4,0.2-0.5,0.5-0.5c0.4,0,0.6,0.2,0.6,0.5v0.1c0,0.2-0.2,0.5-0.6,0.5c-0.2,0-0.5-0.2-0.5-0.5V175.3z
			 M244.4,177.5c0-0.2,0.2-0.5,0.5-0.5c0.2,0,0.5,0.2,0.5,0.5v5.3c0,0.2-0.2,0.5-0.5,0.5c-0.2,0-0.5-0.2-0.5-0.5V177.5z"/>
		<path d="M252.8,182.7c0,0.2-0.2,0.5-0.5,0.5c-0.2,0-0.5-0.2-0.5-0.5v-0.8c-0.5,0.7-1.2,1.3-2.3,1.3c-1.4,0-2.9-1.2-2.9-3.2l0,0
			c0-2,1.4-3.2,2.9-3.2c1.2,0,1.9,0.6,2.3,1.3v-3.3c0-0.2,0.2-0.5,0.5-0.5c0.2,0,0.5,0.2,0.5,0.5V182.7z M247.7,180.1L247.7,180.1
			c0,1.4,0.9,2.3,2.1,2.3s2.2-0.9,2.2-2.3l0,0c0-1.4-1.1-2.3-2.2-2.3C248.6,177.8,247.7,178.7,247.7,180.1z"/>
		<path d="M254.1,181.3L254.1,181.3c0-1.3,1.1-2,2.6-2c0.8,0,1.3,0.1,1.9,0.2v-0.2c0-1.1-0.7-1.6-1.8-1.6c-0.6,0-1.2,0.1-1.5,0.4
			h-0.1c-0.2,0-0.4-0.1-0.4-0.4s0.1-0.4,0.2-0.4c0.6-0.2,1.2-0.5,2-0.5s1.5,0.2,2,0.7c0.4,0.5,0.6,0.9,0.6,1.8v3.3
			c0,0.2-0.2,0.5-0.5,0.5s-0.5-0.2-0.5-0.5V182c-0.5,0.6-1.2,1.1-2.2,1.1C255.3,183.3,254.1,182.6,254.1,181.3z M258.6,180.9v-0.6
			c-0.5-0.1-1.1-0.2-1.8-0.2c-1.2,0-1.8,0.5-1.8,1.3l0,0c0,0.7,0.7,1.2,1.5,1.2C257.6,182.5,258.6,181.9,258.6,180.9z"/>
		<path d="M261.4,181.6V178h-0.5c-0.2,0-0.4-0.2-0.4-0.4s0.2-0.4,0.4-0.4h0.5v-1.4c0-0.2,0.2-0.5,0.5-0.5s0.5,0.2,0.5,0.5v1.4h1.5
			c0.2,0,0.4,0.2,0.4,0.4s-0.2,0.4-0.4,0.4h-1.5v3.5c0,0.7,0.4,1.1,1.1,1.1c0.4,0,0.5-0.1,0.6-0.1c0.2,0,0.4,0.1,0.4,0.4
			c0,0.1-0.1,0.2-0.2,0.4c-0.2,0.1-0.6,0.1-0.9,0.1C262.1,183.2,261.4,182.7,261.4,181.6z"/>
		<path d="M267.9,183.3c-1.6,0-3-1.3-3-3.2l0,0c0-1.8,1.2-3.2,2.9-3.2s2.8,1.4,2.8,3c0,0.2-0.2,0.5-0.5,0.5h-4.3
			c0.1,1.3,1.1,2,2.1,2c0.7,0,1.3-0.4,1.8-0.7c0.1,0,0.1-0.1,0.2-0.1c0.2,0,0.4,0.1,0.4,0.4c0,0.1,0,0.2-0.1,0.4
			C269.7,183,269,183.3,267.9,183.3z M269.7,179.8c-0.1-1.1-0.7-2.1-1.9-2.1c-1.1,0-1.9,0.8-2,2.1H269.7z"/>
		<path d="M275.1,184.9c-0.1,0-0.2-0.1-0.2-0.4s0.2-0.4,0.4-0.4c0.1,0,0.1,0,0.2,0c0.1,0.1,0.4,0.1,0.7,0.1c0.6,0,0.9-0.4,1.2-1.1
			V183l-2.6-5.4c0-0.1,0-0.1,0-0.2c0-0.2,0.2-0.5,0.5-0.5c0.2,0,0.4,0.1,0.5,0.4l2.1,4.8l1.9-4.8c0.1-0.2,0.2-0.4,0.5-0.4
			s0.5,0.2,0.5,0.5c0,0.1,0,0.1,0,0.2l-2.3,5.6c-0.6,1.3-1.1,1.8-2,1.8C275.7,185.1,275.3,185,275.1,184.9z"/>
		<path d="M281.1,180.2L281.1,180.2c0-1.8,1.3-3.2,3.2-3.2c1.8,0,3.2,1.4,3.2,3.2l0,0c0,1.8-1.3,3.2-3.2,3.2
			S281.1,181.8,281.1,180.2z M286.4,180.2L286.4,180.2c0-1.3-0.9-2.3-2.2-2.3s-2.2,1.1-2.2,2.3l0,0c0,1.3,0.9,2.3,2.2,2.3
			S286.4,181.5,286.4,180.2z"/>
		<path d="M293.9,182.7c0,0.2-0.2,0.5-0.5,0.5c-0.2,0-0.5-0.2-0.5-0.5V182c-0.4,0.7-1.1,1.2-2.1,1.2c-1.4,0-2.3-0.9-2.3-2.5v-3.4
			c0-0.2,0.2-0.5,0.5-0.5c0.2,0,0.5,0.2,0.5,0.5v3.2c0,1.2,0.6,1.9,1.6,1.9c1.1,0,1.8-0.7,1.8-1.9v-3c0-0.2,0.2-0.5,0.5-0.5
			c0.2,0,0.5,0.2,0.5,0.5v5.3V182.7L293.9,182.7z"/>
		<path d="M295.6,177.5c0-0.2,0.2-0.5,0.5-0.5c0.2,0,0.5,0.2,0.5,0.5v1.2c0.5-1.1,1.3-1.6,2.1-1.6c0.2,0,0.5,0.2,0.5,0.5
			s-0.1,0.5-0.4,0.5c-1.2,0.1-2.1,1.1-2.1,2.8v2.1c0,0.2-0.2,0.5-0.5,0.5c-0.2,0-0.5-0.2-0.5-0.5L295.6,177.5L295.6,177.5z"/>
		<path d="M303.4,175c0-0.2,0.2-0.5,0.5-0.5c0.2,0,0.5,0.2,0.5,0.5v7.7c0,0.2-0.2,0.5-0.5,0.5s-0.5-0.2-0.5-0.5V175z"/>
		<path d="M305.8,180.2L305.8,180.2c0-1.8,1.3-3.2,3.2-3.2c1.8,0,3.2,1.4,3.2,3.2l0,0c0,1.8-1.3,3.2-3.2,3.2
			S305.8,181.8,305.8,180.2z M311,180.2L311,180.2c0-1.3-0.9-2.3-2.2-2.3s-2.2,1.1-2.2,2.3l0,0c0,1.3,0.9,2.3,2.2,2.3
			C310.2,182.5,311,181.5,311,180.2z"/>
		<path d="M313.5,184.4c-0.1-0.1-0.2-0.2-0.2-0.4s0.2-0.4,0.4-0.4s0.1,0,0.2,0.1c0.6,0.5,1.4,0.7,2.1,0.7c1.3,0,2.2-0.7,2.2-2.1
			v-0.9c-0.5,0.7-1.3,1.3-2.3,1.3c-1.4,0-2.8-1.1-2.8-2.8l0,0c0-1.8,1.4-2.8,2.8-2.8c1.2,0,1.9,0.6,2.3,1.2v-0.7
			c0-0.2,0.2-0.5,0.5-0.5s0.5,0.2,0.5,0.5v4.6c0,0.9-0.2,1.6-0.8,2.1c-0.6,0.6-1.3,0.8-2.3,0.8C315.1,185.1,314.3,184.9,313.5,184.4
			z M318.3,179.8L318.3,179.8c0-1.3-1.1-2.1-2.2-2.1c-1.2,0-2.1,0.8-2.1,2l0,0c0,1.2,0.9,2.1,2.1,2.1
			C317.1,181.9,318.3,181.1,318.3,179.8z"/>
		<path d="M320.9,175.3c0-0.4,0.2-0.5,0.5-0.5c0.4,0,0.6,0.2,0.6,0.5v0.1c0,0.2-0.2,0.5-0.6,0.5c-0.2,0-0.5-0.2-0.5-0.5V175.3z
			 M320.9,177.5c0-0.2,0.2-0.5,0.5-0.5s0.5,0.2,0.5,0.5v5.3c0,0.2-0.2,0.5-0.5,0.5c-0.2,0-0.5-0.2-0.5-0.5V177.5z"/>
		<path d="M323.6,177.5c0-0.2,0.2-0.5,0.5-0.5c0.2,0,0.5,0.2,0.5,0.5v0.7c0.4-0.7,1.1-1.2,2.1-1.2c1.4,0,2.3,0.9,2.3,2.5v3.4
			c0,0.2-0.2,0.5-0.5,0.5s-0.5-0.2-0.5-0.5v-3.2c0-1.2-0.6-1.9-1.6-1.9c-1.1,0-1.8,0.7-1.8,1.9v3c0,0.2-0.2,0.5-0.5,0.5
			s-0.5-0.2-0.5-0.5v-5.3V177.5L323.6,177.5z"/>
		<path d="M330.9,181.8c0.4,0,0.6,0.2,0.6,0.6v0.2c0,0.4-0.2,0.6-0.6,0.6s-0.6-0.2-0.6-0.6v-0.2C330.4,182,330.7,181.8,330.9,181.8z
			"/>
	</g>
	<g className="st0">
		<rect x="88.8" y="244.9" className="st21" width="191.6" height="13.9"/>
		<path className="st22" d="M89.8,253v-7.3c0-0.2,0.2-0.5,0.5-0.5h5c0.2,0,0.5,0.2,0.5,0.5s-0.2,0.5-0.5,0.5h-4.6v2.8h4.1
			c0.2,0,0.5,0.2,0.5,0.5s-0.2,0.5-0.5,0.5h-4.1v2.8h4.7c0.2,0,0.5,0.2,0.5,0.5c0,0.2-0.2,0.5-0.5,0.5h-5.2
			C90,253.5,89.8,253.3,89.8,253z"/>
		<path className="st22" d="M97.3,247.8c0-0.2,0.2-0.5,0.5-0.5c0.2,0,0.5,0.2,0.5,0.5v0.7c0.4-0.7,1.1-1.2,2.1-1.2
			c1.4,0,2.3,0.9,2.3,2.5v3.4c0,0.2-0.2,0.5-0.5,0.5s-0.5-0.2-0.5-0.5V250c0-1.2-0.6-1.9-1.6-1.9c-1.1,0-1.8,0.7-1.8,1.9v3
			c0,0.2-0.2,0.5-0.5,0.5s-0.5-0.2-0.5-0.5v-5.3V247.8L97.3,247.8z"/>
		<path className="st22" d="M104.4,251.9v-3.7H104c-0.2,0-0.4-0.2-0.4-0.4s0.2-0.4,0.4-0.4h0.5V246c0-0.2,0.2-0.5,0.5-0.5
			s0.5,0.2,0.5,0.5v1.4h1.5c0.2,0,0.4,0.2,0.4,0.4s-0.2,0.4-0.4,0.4h-1.5v3.5c0,0.7,0.4,1.1,1.1,1.1c0.4,0,0.5-0.1,0.6-0.1
			c0.2,0,0.4,0.1,0.4,0.4c0,0.1-0.1,0.2-0.2,0.4c-0.2,0.1-0.6,0.1-0.9,0.1C105.3,253.6,104.4,253.1,104.4,251.9z"/>
		<path className="st22" d="M111.1,253.7c-1.6,0-3-1.3-3-3.2l0,0c0-1.8,1.2-3.2,2.9-3.2s2.8,1.4,2.8,3c0,0.2-0.2,0.5-0.5,0.5H109
			c0.1,1.3,1.1,2,2.1,2c0.7,0,1.3-0.4,1.8-0.7c0.1,0,0.1-0.1,0.2-0.1c0.2,0,0.4,0.1,0.4,0.4c0,0.1,0,0.2-0.1,0.4
			C112.8,253.2,112.2,253.7,111.1,253.7z M112.9,250.2c-0.1-1.1-0.7-2.1-1.9-2.1c-1.1,0-1.9,0.8-2,2.1H112.9z"/>
		<path className="st22" d="M115.1,247.8c0-0.2,0.2-0.5,0.5-0.5s0.5,0.2,0.5,0.5v1.2c0.5-1.1,1.3-1.6,2.1-1.6c0.2,0,0.5,0.2,0.5,0.5
			s-0.1,0.5-0.4,0.5c-1.2,0.1-2.1,1.1-2.1,2.8v2.1c0,0.2-0.2,0.5-0.5,0.5c-0.2,0-0.5-0.2-0.5-0.5L115.1,247.8L115.1,247.8z"/>
		<path className="st22" d="M122.6,249.5L122.6,249.5c0-2.2,1.6-4.2,4.2-4.2s4.2,2,4.2,4.2l0,0c0,2.2-1.6,4.2-4.2,4.2
			S122.6,251.7,122.6,249.5z M130,249.5L130,249.5c0-1.9-1.4-3.4-3.3-3.4c-1.9,0-3.2,1.5-3.2,3.4l0,0c0,1.9,1.4,3.4,3.3,3.4
			C128.7,252.9,130,251.2,130,249.5z"/>
		<path className="st22" d="M134.2,246.2h-2.3c-0.2,0-0.5-0.2-0.5-0.5s0.2-0.5,0.5-0.5h5.7c0.2,0,0.5,0.2,0.5,0.5s-0.2,0.5-0.5,0.5h-2.3
			v6.9c0,0.2-0.2,0.5-0.5,0.5s-0.5-0.2-0.5-0.5L134.2,246.2L134.2,246.2z"/>
		<path className="st22" d="M139.3,245.7c0-0.2,0.2-0.5,0.5-0.5h2.6c1.9,0,3,0.9,3,2.6l0,0c0,1.8-1.5,2.7-3.2,2.7h-2v2.5
			c0,0.2-0.2,0.5-0.5,0.5c-0.2,0-0.5-0.2-0.5-0.5L139.3,245.7L139.3,245.7z M142.3,249.7c1.4,0,2.2-0.7,2.2-1.8l0,0
			c0-1.2-0.9-1.8-2.2-1.8h-2.1v3.6H142.3L142.3,249.7z"/>
		<path className="st22" d="M152.8,255.1c-2-1.2-3-2.8-3-4.9c0-2.1,1.1-3.7,3-4.9c0,0,0.1,0,0.2,0c0.2,0,0.4,0.1,0.4,0.4
			c0,0.1-0.1,0.2-0.1,0.4c-1.6,1.1-2.6,2.5-2.6,4.3c0,1.9,0.9,3.2,2.6,4.3c0.1,0.1,0.1,0.1,0.1,0.4s-0.1,0.4-0.4,0.4
			C152.9,255.1,152.8,255.1,152.8,255.1z"/>
		<path className="st22" d="M154,250.5L154,250.5c0-1.8,1.3-3.2,3.2-3.2c1.8,0,3.2,1.4,3.2,3.2l0,0c0,1.8-1.3,3.2-3.2,3.2
			S154,252.2,154,250.5z M159.4,250.5L159.4,250.5c0-1.3-0.9-2.3-2.2-2.3s-2.2,1.1-2.2,2.3l0,0c0,1.3,0.9,2.3,2.2,2.3
			S159.4,251.8,159.4,250.5z"/>
		<path className="st22" d="M161.6,247.8c0-0.2,0.2-0.5,0.5-0.5s0.5,0.2,0.5,0.5v0.7c0.4-0.7,1.1-1.2,2.1-1.2c1.4,0,2.3,0.9,2.3,2.5v3.4
			c0,0.2-0.2,0.5-0.5,0.5s-0.5-0.2-0.5-0.5V250c0-1.2-0.6-1.9-1.6-1.9s-1.8,0.7-1.8,1.9v3c0,0.2-0.2,0.5-0.5,0.5s-0.5-0.2-0.5-0.5
			v-5.3V247.8L161.6,247.8z"/>
		<path className="st22" d="M171.2,253.7c-1.6,0-3-1.3-3-3.2l0,0c0-1.8,1.2-3.2,2.9-3.2s2.8,1.4,2.8,3c0,0.2-0.2,0.5-0.5,0.5h-4.3
			c0.1,1.3,1.1,2,2.1,2c0.7,0,1.3-0.4,1.8-0.7c0.1,0,0.1-0.1,0.2-0.1c0.2,0,0.4,0.1,0.4,0.4c0,0.1,0,0.2-0.1,0.4
			C172.8,253.2,172.3,253.7,171.2,253.7z M173,250.2c-0.1-1.1-0.7-2.1-1.9-2.1c-1.1,0-1.9,0.8-2,2.1H173z"/>
		<path className="st22" d="M180.7,246.2h-2.3c-0.2,0-0.5-0.2-0.5-0.5s0.2-0.5,0.5-0.5h5.7c0.2,0,0.5,0.2,0.5,0.5s-0.2,0.5-0.5,0.5h-2.3
			v6.9c0,0.2-0.2,0.5-0.5,0.5s-0.5-0.2-0.5-0.5L180.7,246.2L180.7,246.2z"/>
		<path className="st22" d="M185.4,245.5c0-0.4,0.2-0.5,0.5-0.5c0.4,0,0.6,0.2,0.6,0.5v0.1c0,0.2-0.2,0.5-0.6,0.5
			c-0.2,0-0.5-0.2-0.5-0.5V245.5z M185.4,247.8c0-0.2,0.2-0.5,0.5-0.5s0.5,0.2,0.5,0.5v5.3c0,0.2-0.2,0.5-0.5,0.5s-0.5-0.2-0.5-0.5
			V247.8z"/>
		<path className="st22" d="M188.1,247.8c0-0.2,0.2-0.5,0.5-0.5s0.5,0.2,0.5,0.5v0.6c0.4-0.6,0.9-1.2,2-1.2c0.9,0,1.6,0.6,2,1.2
			c0.5-0.7,1.1-1.2,2.1-1.2c1.4,0,2.2,0.9,2.2,2.5v3.4c0,0.2-0.2,0.5-0.5,0.5s-0.5-0.2-0.5-0.5v-3.2c0-1.2-0.6-1.9-1.5-1.9
			s-1.6,0.7-1.6,1.9v3c0,0.2-0.2,0.5-0.5,0.5s-0.5-0.2-0.5-0.5v-3.2c0-1.2-0.6-1.8-1.5-1.8s-1.6,0.8-1.6,1.9v3
			c0,0.2-0.2,0.5-0.5,0.5s-0.5-0.2-0.5-0.5v-5.2L188.1,247.8L188.1,247.8z"/>
		<path className="st22" d="M201.7,253.7c-1.6,0-3-1.3-3-3.2l0,0c0-1.8,1.2-3.2,2.9-3.2s2.8,1.4,2.8,3c0,0.2-0.2,0.5-0.5,0.5h-4.3
			c0.1,1.3,1.1,2,2.1,2c0.7,0,1.3-0.4,1.8-0.7c0.1,0,0.1-0.1,0.2-0.1c0.2,0,0.4,0.1,0.4,0.4c0,0.1,0,0.2-0.1,0.4
			C203.3,253.2,202.6,253.7,201.7,253.7z M203.4,250.2c-0.1-1.1-0.7-2.1-1.9-2.1c-1.1,0-1.9,0.8-2,2.1H203.4z"/>
		<path className="st22" d="M208.9,245.7c0-0.2,0.2-0.5,0.5-0.5h2.6c1.9,0,3,0.9,3,2.6l0,0c0,1.8-1.5,2.7-3.2,2.7h-2v2.5
			c0,0.2-0.2,0.5-0.5,0.5c-0.2,0-0.5-0.2-0.5-0.5L208.9,245.7L208.9,245.7z M212,249.7c1.4,0,2.2-0.7,2.2-1.8l0,0
			c0-1.2-0.9-1.8-2.2-1.8h-2.1v3.6H212L212,249.7z"/>
		<path className="st22" d="M215.8,251.7L215.8,251.7c0-1.3,1.1-2,2.6-2c0.8,0,1.3,0.1,1.9,0.2v-0.2c0-1.1-0.7-1.6-1.8-1.6
			c-0.6,0-1.2,0.1-1.5,0.4h-0.1c-0.2,0-0.4-0.1-0.4-0.4s0.1-0.4,0.2-0.4c0.6-0.2,1.2-0.5,2-0.5s1.5,0.2,2,0.7
			c0.4,0.5,0.6,0.9,0.6,1.8v3.3c0,0.2-0.2,0.5-0.5,0.5c-0.2,0-0.5-0.2-0.5-0.5v-0.6c-0.5,0.6-1.2,1.1-2.2,1.1
			C216.9,253.6,215.8,253,215.8,251.7z M220.3,251.2v-0.6c-0.5-0.1-1.1-0.2-1.8-0.2c-1.2,0-1.8,0.5-1.8,1.3l0,0
			c0,0.7,0.7,1.2,1.5,1.2C219.3,252.9,220.3,252.3,220.3,251.2z"/>
		<path className="st22" d="M222.4,252.9c-0.1,0-0.1-0.2-0.1-0.4s0.1-0.4,0.4-0.4c0.1,0,0.1,0,0.2,0.1c0.6,0.5,1.3,0.6,1.9,0.6
			c0.7,0,1.3-0.4,1.3-0.9l0,0c0-0.6-0.7-0.8-1.5-1.1c-0.9-0.2-2-0.6-2-1.8l0,0c0-1.1,0.8-1.8,2.1-1.8c0.6,0,1.3,0.2,1.9,0.5
			c0.1,0.1,0.2,0.2,0.2,0.4s-0.2,0.4-0.4,0.4c-0.1,0-0.1,0-0.2,0c-0.5-0.4-1.1-0.5-1.5-0.5c-0.7,0-1.2,0.4-1.2,0.8l0,0
			c0,0.6,0.7,0.8,1.5,1.1c0.9,0.2,2,0.6,2,1.8l0,0c0,1.2-0.9,1.8-2.1,1.8C223.9,253.6,223.1,253.3,222.4,252.9z"/>
		<path className="st22" d="M227.8,252.9c-0.1,0-0.1-0.2-0.1-0.4s0.1-0.4,0.4-0.4c0.1,0,0.1,0,0.2,0.1c0.6,0.5,1.3,0.6,1.9,0.6
			c0.7,0,1.3-0.4,1.3-0.9l0,0c0-0.6-0.7-0.8-1.5-1.1c-0.9-0.2-2-0.6-2-1.8l0,0c0-1.1,0.8-1.8,2.1-1.8c0.6,0,1.3,0.2,1.9,0.5
			c0.1,0.1,0.2,0.2,0.2,0.4s-0.2,0.4-0.4,0.4c-0.1,0-0.1,0-0.2,0c-0.5-0.4-1.1-0.5-1.5-0.5c-0.7,0-1.2,0.4-1.2,0.8l0,0
			c0,0.6,0.7,0.8,1.5,1.1c0.9,0.2,2,0.6,2,1.8l0,0c0,1.2-0.9,1.8-2.1,1.8C229.3,253.6,228.5,253.3,227.8,252.9z"/>
		<path className="st22" d="M235,253.2l-1.9-5.2c0-0.1-0.1-0.1-0.1-0.2c0-0.2,0.2-0.5,0.5-0.5c0.2,0,0.4,0.1,0.5,0.4l1.5,4.6l1.5-4.6
			c0.1-0.2,0.2-0.4,0.5-0.4l0,0c0.2,0,0.4,0.1,0.5,0.4l1.5,4.6l1.5-4.6c0-0.2,0.2-0.4,0.5-0.4c0.2,0,0.5,0.2,0.5,0.5
			c0,0.1,0,0.1,0,0.2l-1.9,5.2c-0.1,0.2-0.2,0.5-0.5,0.5l0,0c-0.2,0-0.4-0.1-0.5-0.5l-1.5-4.5l-1.5,4.5c-0.1,0.2-0.2,0.5-0.5,0.5
			l0,0C235.3,253.6,235.1,253.5,235,253.2z"/>
		<path className="st22" d="M242.6,250.5L242.6,250.5c0-1.8,1.3-3.2,3.2-3.2c1.8,0,3.2,1.4,3.2,3.2l0,0c0,1.8-1.3,3.2-3.2,3.2
			C244,253.7,242.6,252.2,242.6,250.5z M248,250.5L248,250.5c0-1.3-0.9-2.3-2.2-2.3s-2.2,1.1-2.2,2.3l0,0c0,1.3,0.9,2.3,2.2,2.3
			C247.1,252.9,248,251.8,248,250.5z"/>
		<path className="st22" d="M250.4,247.8c0-0.2,0.2-0.5,0.5-0.5c0.2,0,0.5,0.2,0.5,0.5v1.2c0.5-1.1,1.3-1.6,2.1-1.6
			c0.2,0,0.5,0.2,0.5,0.5s-0.1,0.5-0.4,0.5c-1.2,0.1-2.1,1.1-2.1,2.8v2.1c0,0.2-0.2,0.5-0.5,0.5s-0.5-0.2-0.5-0.5v-5.4L250.4,247.8
			L250.4,247.8z"/>
		<path className="st22" d="M260.3,253.1c0,0.2-0.2,0.5-0.5,0.5s-0.5-0.2-0.5-0.5v-0.8c-0.5,0.7-1.2,1.3-2.3,1.3c-1.4,0-2.9-1.2-2.9-3.2
			l0,0c0-2,1.4-3.2,2.9-3.2c1.2,0,1.9,0.6,2.3,1.3v-3.3c0-0.2,0.2-0.5,0.5-0.5c0.2,0,0.5,0.2,0.5,0.5V253.1z M255.1,250.4
			L255.1,250.4c0,1.4,0.9,2.3,2.1,2.3s2.2-0.9,2.2-2.3l0,0c0-1.4-1.1-2.3-2.2-2.3C256.1,248.1,255.1,249,255.1,250.4z"/>
		<path className="st22" d="M261.6,254.7c0-0.1,0.1-0.2,0.1-0.4c1.6-1.1,2.6-2.5,2.6-4.3s-0.9-3.2-2.6-4.3c-0.1-0.1-0.1-0.1-0.1-0.4
			c0-0.2,0.1-0.4,0.4-0.4c0.1,0,0.2,0,0.2,0c2,1.2,3,2.8,3,4.9c0,2.1-1.2,3.7-3,4.9c0,0-0.1,0-0.2,0
			C261.8,255.1,261.6,255,261.6,254.7z"/>
	</g>
	<g>
		<rect x="89.9" y="263.2" className="st19" width="234.8" height="51.4"/>
		<path d="M93.6,268.6l-3-4.2c0-0.1-0.1-0.2-0.1-0.4c0-0.2,0.2-0.5,0.5-0.5s0.4,0.1,0.5,0.2l2.7,3.9l2.7-3.9
			c0.1-0.1,0.2-0.2,0.5-0.2c0.2,0,0.5,0.2,0.5,0.5c0,0.1-0.1,0.2-0.1,0.4l-3,4.2v2.8c0,0.2-0.2,0.5-0.5,0.5s-0.5-0.2-0.5-0.5
			L93.6,268.6L93.6,268.6z"/>
		<path d="M97.4,268.8L97.4,268.8c0-1.8,1.3-3.2,3.2-3.2c1.8,0,3.2,1.4,3.2,3.2l0,0c0,1.8-1.3,3.2-3.2,3.2
			C98.7,272,97.4,270.6,97.4,268.8z M102.8,268.8L102.8,268.8c0-1.3-0.9-2.3-2.2-2.3c-1.3,0-2.2,1.1-2.2,2.3l0,0
			c0,1.3,0.9,2.3,2.2,2.3S102.8,270.1,102.8,268.8z"/>
		<path d="M110.2,271.5c0,0.2-0.2,0.5-0.5,0.5s-0.5-0.2-0.5-0.5v-0.7c-0.4,0.7-1.1,1.2-2.1,1.2c-1.4,0-2.3-0.9-2.3-2.5v-3.4
			c0-0.2,0.2-0.5,0.5-0.5c0.2,0,0.5,0.2,0.5,0.5v3.2c0,1.2,0.6,1.9,1.6,1.9s1.8-0.7,1.8-1.9v-3c0-0.2,0.2-0.5,0.5-0.5
			s0.5,0.2,0.5,0.5v5.3V271.5L110.2,271.5z"/>
		<path d="M111.9,266.2c0-0.2,0.2-0.5,0.5-0.5c0.2,0,0.5,0.2,0.5,0.5v1.2c0.5-1.1,1.3-1.6,2.1-1.6c0.2,0,0.5,0.2,0.5,0.5
			s-0.1,0.5-0.4,0.5c-1.2,0.1-2.1,1.1-2.1,2.8v2.1c0,0.2-0.2,0.5-0.5,0.5s-0.5-0.2-0.5-0.5L111.9,266.2L111.9,266.2z"/>
		<path d="M119.4,267.7L119.4,267.7c0-2.2,1.6-4.2,4.2-4.2s4.2,2,4.2,4.2l0,0c0,2.2-1.6,4.2-4.2,4.2
			C121.1,272,119.4,270,119.4,267.7z M126.8,267.7L126.8,267.7c0-1.9-1.4-3.4-3.3-3.4s-3.2,1.5-3.2,3.4l0,0c0,1.9,1.4,3.4,3.3,3.4
			C125.5,271.1,126.8,269.6,126.8,267.7z"/>
		<path d="M129.3,266.2c0-0.2,0.2-0.5,0.5-0.5s0.5,0.2,0.5,0.5v0.7c0.4-0.7,1.1-1.2,2.1-1.2c1.4,0,2.3,0.9,2.3,2.5v3.4
			c0,0.2-0.2,0.5-0.5,0.5s-0.5-0.2-0.5-0.5v-3.2c0-1.2-0.6-1.9-1.6-1.9c-1.1,0-1.8,0.7-1.8,1.9v3c0,0.2-0.2,0.5-0.5,0.5
			s-0.5-0.2-0.5-0.5v-5.3l0,0V266.2z"/>
		<path d="M138.9,272c-1.6,0-3-1.3-3-3.2l0,0c0-1.8,1.2-3.2,2.9-3.2s2.8,1.5,2.8,3c0,0.2-0.2,0.5-0.5,0.5h-4.3
			c0.1,1.3,1.1,2.1,2.1,2.1c0.7,0,1.3-0.4,1.8-0.7c0.1-0.1,0.1-0.1,0.2-0.1c0.2,0,0.4,0.1,0.4,0.4c0,0.1,0,0.2-0.1,0.4
			C140.6,271.6,139.9,272,138.9,272z M140.6,268.4c-0.1-1.1-0.7-2.1-1.9-2.1c-1.1,0-1.9,0.9-2,2.1H140.6z"/>
		<path d="M148.4,264.5H146c-0.2,0-0.5-0.2-0.5-0.5s0.2-0.5,0.5-0.5h5.7c0.2,0,0.5,0.2,0.5,0.5s-0.2,0.5-0.5,0.5h-2.3v6.9
			c0,0.2-0.2,0.5-0.5,0.5s-0.5-0.2-0.5-0.5V264.5L148.4,264.5z"/>
		<path d="M153.1,263.9c0-0.4,0.2-0.5,0.5-0.5c0.4,0,0.6,0.2,0.6,0.5v0.1c0,0.2-0.2,0.5-0.6,0.5c-0.2,0-0.5-0.2-0.5-0.5V263.9z
			 M153.1,266.2c0-0.2,0.2-0.5,0.5-0.5s0.5,0.2,0.5,0.5v5.3c0,0.2-0.2,0.5-0.5,0.5s-0.5-0.2-0.5-0.5V266.2z"/>
		<path d="M155.7,266.2c0-0.2,0.2-0.5,0.5-0.5s0.5,0.2,0.5,0.5v0.6c0.4-0.6,0.9-1.2,2-1.2c0.9,0,1.6,0.6,2,1.2
			c0.5-0.7,1.1-1.2,2.1-1.2c1.4,0,2.2,0.9,2.2,2.5v3.4c0,0.2-0.2,0.5-0.5,0.5s-0.5-0.2-0.5-0.5v-3.2c0-1.2-0.6-1.9-1.5-1.9
			s-1.6,0.7-1.6,1.9v3c0,0.2-0.2,0.5-0.5,0.5s-0.5-0.2-0.5-0.5v-3.2c0-1.2-0.6-1.8-1.5-1.8s-1.6,0.8-1.6,1.9v3
			c0,0.2-0.2,0.5-0.5,0.5c-0.2,0-0.5-0.2-0.5-0.5V266L155.7,266.2L155.7,266.2z"/>
		<path d="M169.3,272c-1.6,0-3-1.3-3-3.2l0,0c0-1.8,1.2-3.2,2.9-3.2s2.8,1.5,2.8,3c0,0.2-0.2,0.5-0.5,0.5h-4.3
			c0.1,1.3,1.1,2.1,2.1,2.1c0.7,0,1.3-0.4,1.8-0.7c0.1-0.1,0.1-0.1,0.2-0.1c0.2,0,0.4,0.1,0.4,0.4c0,0.1,0,0.2-0.1,0.4
			C171,271.6,170.3,272,169.3,272z M171.1,268.4c-0.1-1.1-0.7-2.1-1.9-2.1c-1.1,0-1.9,0.9-2,2.1H171.1z"/>
		<path d="M176.7,264.1c0-0.2,0.2-0.5,0.5-0.5h2.6c1.9,0,3,0.9,3,2.6l0,0c0,1.8-1.5,2.7-3.2,2.7h-2v2.5c0,0.2-0.2,0.5-0.5,0.5
			s-0.5-0.2-0.5-0.5L176.7,264.1L176.7,264.1z M179.6,268.1c1.4,0,2.2-0.7,2.2-1.8l0,0c0-1.2-0.9-1.8-2.2-1.8h-2.1v3.6L179.6,268.1
			L179.6,268.1z"/>
		<path d="M183.5,270.1L183.5,270.1c0-1.3,1.1-2,2.6-2c0.8,0,1.3,0.1,1.9,0.2v-0.2c0-1.1-0.7-1.6-1.8-1.6c-0.6,0-1.2,0.1-1.5,0.4
			h-0.1c-0.2,0-0.4-0.1-0.4-0.4s0.1-0.4,0.2-0.4c0.6-0.2,1.2-0.4,2-0.4s1.5,0.2,2,0.7c0.4,0.5,0.6,0.9,0.6,1.8v3.3
			c0,0.2-0.2,0.5-0.5,0.5s-0.5-0.2-0.5-0.5v-0.6c-0.5,0.6-1.2,1.1-2.2,1.1C184.6,272,183.5,271.4,183.5,270.1z M188,269.6V269
			c-0.5-0.1-1.1-0.2-1.8-0.2c-1.2,0-1.8,0.5-1.8,1.3l0,0c0,0.8,0.7,1.2,1.5,1.2C187,271.3,188,270.6,188,269.6z"/>
		<path d="M190.1,271.1c-0.1-0.1-0.1-0.2-0.1-0.4c0-0.2,0.1-0.4,0.4-0.4c0.1,0,0.1,0,0.2,0.1c0.6,0.5,1.3,0.7,1.9,0.7
			c0.7,0,1.3-0.4,1.3-0.9l0,0c0-0.6-0.7-0.8-1.5-1.1c-0.9-0.2-2-0.6-2-1.8l0,0c0-1.1,0.8-1.8,2.1-1.8c0.6,0,1.3,0.2,1.9,0.5
			c0.1,0.1,0.2,0.2,0.2,0.4c0,0.2-0.1,0.4-0.4,0.4c-0.1,0-0.1,0-0.2,0c-0.5-0.4-1.1-0.5-1.5-0.5c-0.7,0-1.2,0.4-1.2,0.9l0,0
			c0,0.6,0.7,0.8,1.5,1.1c0.9,0.2,2,0.6,2,1.8l0,0c0,1.2-0.9,1.8-2.1,1.8C191.6,272,190.8,271.6,190.1,271.1z"/>
		<path d="M195.4,271.1c-0.1-0.1-0.1-0.2-0.1-0.4c0-0.2,0.1-0.4,0.4-0.4c0.1,0,0.1,0,0.2,0.1c0.6,0.5,1.3,0.7,1.9,0.7
			c0.7,0,1.3-0.4,1.3-0.9l0,0c0-0.6-0.7-0.8-1.5-1.1c-0.9-0.2-2-0.6-2-1.8l0,0c0-1.1,0.8-1.8,2.1-1.8c0.6,0,1.3,0.2,1.9,0.5
			c0.1,0.1,0.2,0.2,0.2,0.4c0,0.2-0.1,0.4-0.4,0.4c-0.1,0-0.1,0-0.2,0c-0.5-0.4-1.1-0.5-1.5-0.5c-0.7,0-1.2,0.4-1.2,0.9l0,0
			c0,0.6,0.7,0.8,1.5,1.1c0.9,0.2,2,0.6,2,1.8l0,0c0,1.2-0.9,1.8-2.1,1.8C197.1,272,196.1,271.6,195.4,271.1z"/>
		<path d="M202.7,271.5l-1.9-5.2c0-0.1-0.1-0.1-0.1-0.2c0-0.2,0.2-0.5,0.5-0.5c0.2,0,0.4,0.1,0.5,0.4l1.5,4.6l1.5-4.6
			c0.1-0.2,0.2-0.4,0.5-0.4l0,0c0.2,0,0.4,0.1,0.5,0.4l1.5,4.6l1.5-4.6c0-0.2,0.2-0.4,0.5-0.4c0.2,0,0.5,0.2,0.5,0.5
			c0,0.1,0,0.2-0.1,0.2l-1.9,5.2c-0.1,0.2-0.2,0.4-0.5,0.4l0,0c-0.2,0-0.4-0.1-0.5-0.4l-1.5-4.5l-1.5,4.5c-0.1,0.2-0.2,0.4-0.5,0.4
			l0,0C202.9,272,202.8,271.8,202.7,271.5z"/>
		<path d="M210.3,268.8L210.3,268.8c0-1.8,1.3-3.2,3.2-3.2c1.8,0,3.2,1.4,3.2,3.2l0,0c0,1.8-1.3,3.2-3.2,3.2
			C211.7,272,210.3,270.6,210.3,268.8z M215.7,268.8L215.7,268.8c0-1.3-0.9-2.3-2.2-2.3s-2.2,1.1-2.2,2.3l0,0c0,1.3,0.9,2.3,2.2,2.3
			C214.9,271.1,215.7,270.1,215.7,268.8z"/>
		<path d="M218,266.2c0-0.2,0.2-0.5,0.5-0.5c0.2,0,0.5,0.2,0.5,0.5v1.2c0.5-1.1,1.3-1.6,2.1-1.6c0.2,0,0.5,0.2,0.5,0.5
			s-0.1,0.5-0.4,0.5c-1.2,0.1-2.1,1.1-2.1,2.8v2.1c0,0.2-0.2,0.5-0.5,0.5c-0.2,0-0.5-0.2-0.5-0.5v-5.4L218,266.2L218,266.2z"/>
		<path d="M228,271.5c0,0.2-0.2,0.5-0.5,0.5c-0.2,0-0.5-0.2-0.5-0.5v-0.8c-0.5,0.7-1.2,1.3-2.3,1.3c-1.4,0-2.9-1.2-2.9-3.2l0,0
			c0-2,1.4-3.2,2.9-3.2c1.2,0,1.9,0.6,2.3,1.3v-3.3c0-0.2,0.2-0.5,0.5-0.5c0.2,0,0.5,0.2,0.5,0.5V271.5z M222.7,268.8L222.7,268.8
			c0,1.4,0.9,2.3,2.1,2.3c1.2,0,2.2-0.9,2.2-2.3l0,0c0-1.4-1.1-2.3-2.2-2.3C223.8,266.5,222.7,267.3,222.7,268.8z"/>
		<path d="M232.9,263.6c0-0.2,0.2-0.5,0.5-0.5c0.2,0,0.5,0.2,0.5,0.5v3.2c0.4-0.7,1.1-1.2,2.1-1.2c1.4,0,2.3,0.9,2.3,2.5v3.4
			c0,0.2-0.2,0.5-0.5,0.5c-0.2,0-0.5-0.2-0.5-0.5v-3.2c0-1.2-0.6-1.9-1.6-1.9s-1.8,0.7-1.8,1.9v3c0,0.2-0.2,0.5-0.5,0.5
			c-0.2,0-0.5-0.2-0.5-0.5V263.6L232.9,263.6L232.9,263.6z"/>
		<path d="M239.4,270.1L239.4,270.1c0-1.3,1.1-2,2.6-2c0.8,0,1.3,0.1,1.9,0.2v-0.2c0-1.1-0.7-1.6-1.8-1.6c-0.6,0-1.2,0.1-1.5,0.4
			h-0.1c-0.2,0-0.4-0.1-0.4-0.4s0.1-0.4,0.2-0.4c0.6-0.2,1.2-0.4,2-0.4s1.5,0.2,2,0.7c0.4,0.5,0.6,0.9,0.6,1.8v3.3
			c0,0.2-0.2,0.5-0.5,0.5c-0.2,0-0.5-0.2-0.5-0.5v-0.6c-0.5,0.6-1.2,1.1-2.2,1.1C240.5,272,239.4,271.4,239.4,270.1z M243.8,269.6
			V269c-0.5-0.1-1.1-0.2-1.8-0.2c-1.2,0-1.8,0.5-1.8,1.3l0,0c0,0.8,0.7,1.2,1.5,1.2C242.9,271.3,243.8,270.6,243.8,269.6z"/>
		<path d="M246,271.1c-0.1-0.1-0.1-0.2-0.1-0.4c0-0.2,0.1-0.4,0.4-0.4c0.1,0,0.1,0,0.2,0.1c0.6,0.5,1.3,0.7,1.9,0.7
			c0.7,0,1.3-0.4,1.3-0.9l0,0c0-0.6-0.7-0.8-1.5-1.1c-0.9-0.2-2-0.6-2-1.8l0,0c0-1.1,0.8-1.8,2.1-1.8c0.6,0,1.3,0.2,1.9,0.5
			c0.1,0.1,0.2,0.2,0.2,0.4c0,0.2-0.2,0.4-0.4,0.4c-0.1,0-0.1,0-0.2,0c-0.5-0.4-1.1-0.5-1.5-0.5c-0.7,0-1.2,0.4-1.2,0.9l0,0
			c0,0.6,0.7,0.8,1.5,1.1c0.9,0.2,2,0.6,2,1.8l0,0c0,1.2-0.9,1.8-2.1,1.8C247.6,272,246.6,271.6,246,271.1z"/>
		<path d="M255.1,263.6c0-0.2,0.2-0.5,0.5-0.5c0.2,0,0.5,0.2,0.5,0.5v3.3c0.5-0.7,1.2-1.4,2.3-1.4c1.4,0,2.9,1.2,2.9,3.2l0,0
			c0,2-1.4,3.2-2.9,3.2c-1.2,0-1.9-0.6-2.3-1.3v0.7c0,0.2-0.2,0.5-0.5,0.5s-0.5-0.2-0.5-0.5V263.6z M260.3,268.8L260.3,268.8
			c0-1.4-0.9-2.3-2.1-2.3s-2.2,0.9-2.2,2.3l0,0c0,1.4,1.1,2.3,2.2,2.3C259.3,271.1,260.3,270.3,260.3,268.8z"/>
		<path d="M265.2,272c-1.6,0-3-1.3-3-3.2l0,0c0-1.8,1.2-3.2,2.9-3.2s2.8,1.5,2.8,3c0,0.2-0.2,0.5-0.5,0.5h-4.3
			c0.1,1.3,1.1,2.1,2.1,2.1c0.7,0,1.3-0.4,1.8-0.7c0.1-0.1,0.1-0.1,0.2-0.1c0.2,0,0.4,0.1,0.4,0.4c0,0.1,0,0.2-0.1,0.4
			C266.9,271.6,266.3,272,265.2,272z M267,268.4c-0.1-1.1-0.7-2.1-1.9-2.1c-1.1,0-1.9,0.9-2,2.1H267z"/>
		<path d="M271.8,272c-1.6,0-3-1.3-3-3.2l0,0c0-1.8,1.2-3.2,2.9-3.2s2.8,1.5,2.8,3c0,0.2-0.2,0.5-0.5,0.5h-4.3
			c0.1,1.3,1.1,2.1,2.1,2.1c0.7,0,1.3-0.4,1.8-0.7c0.1-0.1,0.1-0.1,0.2-0.1c0.2,0,0.4,0.1,0.4,0.4c0,0.1,0,0.2-0.1,0.4
			C273.6,271.6,272.9,272,271.8,272z M273.7,268.4c-0.1-1.1-0.7-2.1-1.9-2.1c-1.1,0-1.9,0.9-2,2.1H273.7z"/>
		<path d="M275.9,266.2c0-0.2,0.2-0.5,0.5-0.5s0.5,0.2,0.5,0.5v0.7c0.4-0.7,1.1-1.2,2.1-1.2c1.5,0,2.3,0.9,2.3,2.5v3.4
			c0,0.2-0.2,0.5-0.5,0.5s-0.5-0.2-0.5-0.5v-3.2c0-1.2-0.6-1.9-1.6-1.9c-1.1,0-1.8,0.7-1.8,1.9v3c0,0.2-0.2,0.5-0.5,0.5
			c-0.2,0-0.5-0.2-0.5-0.5v-5.3l0,0V266.2z"/>
		<path d="M90.6,285.2c-0.1-0.1-0.1-0.2-0.1-0.4c0-0.2,0.1-0.4,0.4-0.4c0.1,0,0.1,0,0.2,0.1c0.6,0.5,1.3,0.7,1.9,0.7
			c0.7,0,1.3-0.4,1.3-0.9l0,0c0-0.6-0.7-0.8-1.5-1.1c-0.9-0.2-2-0.6-2-1.8l0,0c0-1.1,0.8-1.8,2.1-1.8c0.6,0,1.3,0.2,1.9,0.5
			c0.1,0.1,0.2,0.2,0.2,0.4c0,0.2-0.1,0.4-0.4,0.4c-0.1,0-0.1,0-0.2,0c-0.5-0.4-1.1-0.5-1.5-0.5c-0.7,0-1.2,0.4-1.2,0.9l0,0
			c0,0.6,0.7,0.8,1.5,1.1c0.9,0.2,2,0.6,2,1.8l0,0c0,1.2-0.9,1.8-2.1,1.8C92.2,286,91.2,285.7,90.6,285.2z"/>
		<path d="M99.1,286c-1.6,0-3-1.3-3-3.2l0,0c0-1.8,1.2-3.2,2.9-3.2s2.8,1.5,2.8,3c0,0.2-0.2,0.5-0.5,0.5H97c0.1,1.3,1.1,2.1,2.1,2.1
			c0.7,0,1.3-0.4,1.8-0.7c0.1-0.1,0.1-0.1,0.2-0.1c0.2,0,0.4,0.1,0.4,0.4c0,0.1,0,0.2-0.1,0.4C100.8,285.7,100.1,286,99.1,286z
			 M100.9,282.5c-0.1-1.1-0.7-2.1-1.9-2.1c-1.1,0-1.9,0.9-2,2.1H100.9z"/>
		<path d="M103.2,280.3c0-0.2,0.2-0.5,0.5-0.5s0.5,0.2,0.5,0.5v0.7c0.4-0.7,1.1-1.2,2.1-1.2c1.4,0,2.3,0.9,2.3,2.5v3.4
			c0,0.2-0.2,0.5-0.5,0.5s-0.5-0.2-0.5-0.5v-3.2c0-1.2-0.6-1.9-1.6-1.9c-1.1,0-1.8,0.7-1.8,1.9v3c0,0.2-0.2,0.5-0.5,0.5
			c-0.2,0-0.5-0.2-0.5-0.5v-5.3l0,0V280.3z"/>
		<path d="M115.8,285.5c0,0.2-0.2,0.5-0.5,0.5s-0.5-0.2-0.5-0.5v-0.8c-0.5,0.7-1.2,1.3-2.3,1.3c-1.4,0-2.9-1.2-2.9-3.2l0,0
			c0-2,1.4-3.2,2.9-3.2c1.2,0,1.9,0.6,2.3,1.3v-3.3c0-0.2,0.2-0.5,0.5-0.5s0.5,0.2,0.5,0.5V285.5z M110.7,282.9L110.7,282.9
			c0,1.4,0.9,2.3,2.1,2.3s2.2-0.9,2.2-2.3l0,0c0-1.4-1.1-2.3-2.2-2.3C111.6,280.5,110.7,281.3,110.7,282.9z"/>
		<path d="M121.1,284.3v-3.6h-0.5c-0.2,0-0.4-0.2-0.4-0.4c0-0.2,0.2-0.4,0.4-0.4h0.5v-1.4c0-0.2,0.2-0.5,0.5-0.5
			c0.2,0,0.5,0.2,0.5,0.5v1.4h1.5c0.2,0,0.4,0.2,0.4,0.4c0,0.2-0.2,0.4-0.4,0.4H122v3.5c0,0.7,0.4,1.1,1.1,1.1
			c0.4,0,0.5-0.1,0.6-0.1c0.2,0,0.4,0.2,0.4,0.4s-0.1,0.4-0.2,0.4c-0.2,0.1-0.6,0.1-0.9,0.1C121.8,286,121.1,285.5,121.1,284.3z"/>
		<path d="M124.6,282.9L124.6,282.9c0-1.8,1.3-3.2,3.2-3.2c1.8,0,3.2,1.4,3.2,3.2l0,0c0,1.8-1.3,3.2-3.2,3.2
			C126,286,124.6,284.6,124.6,282.9z M130,282.9L130,282.9c0-1.3-0.9-2.3-2.2-2.3s-2.2,1.1-2.2,2.3l0,0c0,1.3,0.9,2.3,2.2,2.3
			C129,285.2,130,284.1,130,282.9z"/>
		<path d="M135.4,287.7c-0.1,0-0.2-0.1-0.2-0.4c0-0.2,0.2-0.4,0.4-0.4c0.1,0,0.1,0,0.2,0c0.1,0.1,0.4,0.1,0.7,0.1
			c0.6,0,0.9-0.4,1.2-1.1v-0.1l-2.6-5.4c0-0.1,0-0.1,0-0.2c0-0.2,0.2-0.5,0.5-0.5s0.4,0.1,0.5,0.4l2.1,4.8l1.9-4.8
			c0.1-0.2,0.2-0.4,0.5-0.4s0.5,0.2,0.5,0.5c0,0.1,0,0.1,0,0.2l-2.3,5.6c-0.6,1.3-1.1,1.8-2,1.8C136,287.8,135.7,287.8,135.4,287.7z
			"/>
		<path d="M141.3,282.9L141.3,282.9c0-1.8,1.3-3.2,3.2-3.2c1.8,0,3.2,1.4,3.2,3.2l0,0c0,1.8-1.3,3.2-3.2,3.2
			C142.7,286,141.3,284.6,141.3,282.9z M146.7,282.9L146.7,282.9c0-1.3-0.9-2.3-2.2-2.3s-2.2,1.1-2.2,2.3l0,0c0,1.3,0.9,2.3,2.2,2.3
			C145.9,285.2,146.7,284.1,146.7,282.9z"/>
		<path d="M154.2,285.5c0,0.2-0.2,0.5-0.5,0.5s-0.5-0.2-0.5-0.5v-0.7c-0.4,0.7-1.1,1.2-2.1,1.2c-1.4,0-2.3-0.9-2.3-2.5v-3.4
			c0-0.2,0.2-0.5,0.5-0.5c0.2,0,0.5,0.2,0.5,0.5v3.2c0,1.2,0.6,1.9,1.6,1.9s1.8-0.7,1.8-1.9v-3c0-0.2,0.2-0.5,0.5-0.5
			c0.2,0,0.5,0.2,0.5,0.5v5.3l0,0V285.5z"/>
		<path d="M156,280.3c0-0.2,0.2-0.5,0.5-0.5s0.5,0.2,0.5,0.5v1.2c0.5-1.1,1.3-1.6,2.1-1.6c0.2,0,0.5,0.2,0.5,0.5s-0.1,0.5-0.4,0.5
			c-1.2,0.1-2.1,1.1-2.1,2.8v2.1c0,0.2-0.2,0.5-0.5,0.5s-0.5-0.2-0.5-0.5L156,280.3L156,280.3z"/>
		<path d="M163.6,280.3c0-0.2,0.2-0.5,0.5-0.5s0.5,0.2,0.5,0.5v0.6c0.4-0.6,0.9-1.2,2-1.2c0.9,0,1.6,0.6,2,1.2
			c0.5-0.7,1.1-1.2,2.1-1.2c1.4,0,2.2,0.9,2.2,2.5v3.4c0,0.2-0.2,0.5-0.5,0.5c-0.2,0-0.5-0.2-0.5-0.5v-3.2c0-1.2-0.6-1.9-1.5-1.9
			s-1.6,0.7-1.6,1.9v3c0,0.2-0.2,0.5-0.5,0.5s-0.5-0.2-0.5-0.5v-3.2c0-1.2-0.6-1.8-1.5-1.8s-1.6,0.8-1.6,1.9v3
			c0,0.2-0.2,0.5-0.5,0.5s-0.5-0.2-0.5-0.5v-5.2L163.6,280.3L163.6,280.3z"/>
		<path d="M174.1,282.9L174.1,282.9c0-1.8,1.3-3.2,3.2-3.2c1.8,0,3.2,1.4,3.2,3.2l0,0c0,1.8-1.3,3.2-3.2,3.2
			S174.1,284.6,174.1,282.9z M179.5,282.9L179.5,282.9c0-1.3-0.9-2.3-2.2-2.3s-2.2,1.1-2.2,2.3l0,0c0,1.3,0.9,2.3,2.2,2.3
			S179.5,284.1,179.5,282.9z"/>
		<path d="M181.7,277.7c0-0.2,0.2-0.5,0.5-0.5s0.5,0.2,0.5,0.5v3.3c0.5-0.7,1.2-1.4,2.3-1.4c1.4,0,2.9,1.2,2.9,3.2l0,0
			c0,2-1.4,3.2-2.9,3.2c-1.2,0-1.9-0.6-2.3-1.3v0.7c0,0.2-0.2,0.5-0.5,0.5s-0.5-0.2-0.5-0.5V277.7z M186.9,282.9L186.9,282.9
			c0-1.4-0.9-2.3-2.1-2.3s-2.2,0.9-2.2,2.3l0,0c0,1.4,1.1,2.3,2.2,2.3S186.9,284.4,186.9,282.9z"/>
		<path d="M189.2,277.9c0-0.4,0.2-0.5,0.5-0.5c0.4,0,0.6,0.2,0.6,0.5v0.1c0,0.2-0.2,0.5-0.6,0.5c-0.2,0-0.5-0.2-0.5-0.5V277.9z
			 M189.4,280.3c0-0.2,0.2-0.5,0.5-0.5s0.5,0.2,0.5,0.5v5.3c0,0.2-0.2,0.5-0.5,0.5s-0.5-0.2-0.5-0.5V280.3z"/>
		<path d="M192,277.7c0-0.2,0.2-0.5,0.5-0.5s0.5,0.2,0.5,0.5v7.7c0,0.2-0.2,0.5-0.5,0.5s-0.5-0.2-0.5-0.5V277.7z"/>
		<path d="M197.4,286c-1.6,0-3-1.3-3-3.2l0,0c0-1.8,1.2-3.2,2.9-3.2s2.8,1.5,2.8,3c0,0.2-0.2,0.5-0.5,0.5h-4.3
			c0.1,1.3,1.1,2.1,2.1,2.1c0.7,0,1.3-0.4,1.8-0.7c0.1-0.1,0.1-0.1,0.2-0.1c0.2,0,0.4,0.1,0.4,0.4c0,0.1,0,0.2-0.1,0.4
			C199.2,285.7,198.5,286,197.4,286z M199.2,282.5c-0.1-1.1-0.7-2.1-1.9-2.1c-1.1,0-1.9,0.9-2,2.1H199.2z"/>
		<path d="M204.7,280.3c0-0.2,0.2-0.5,0.5-0.5c0.2,0,0.5,0.2,0.5,0.5v0.8c0.5-0.7,1.2-1.4,2.3-1.4c1.4,0,2.9,1.2,2.9,3.2l0,0
			c0,2-1.4,3.2-2.9,3.2c-1.2,0-1.9-0.6-2.3-1.3v2.6c0,0.2-0.2,0.5-0.5,0.5s-0.5-0.2-0.5-0.5V280.3L204.7,280.3z M209.9,282.9
			L209.9,282.9c0-1.4-0.9-2.3-2.1-2.3c-1.2,0-2.2,0.9-2.2,2.3l0,0c0,1.4,1.1,2.3,2.2,2.3C208.9,285.2,209.9,284.4,209.9,282.9z"/>
		<path d="M212.2,277.7c0-0.2,0.2-0.5,0.5-0.5c0.2,0,0.5,0.2,0.5,0.5v3.2c0.4-0.7,1.1-1.2,2.1-1.2c1.5,0,2.3,0.9,2.3,2.5v3.4
			c0,0.2-0.2,0.5-0.5,0.5c-0.2,0-0.5-0.2-0.5-0.5v-3.2c0-1.2-0.6-1.9-1.6-1.9s-1.8,0.7-1.8,1.9v3c0,0.2-0.2,0.5-0.5,0.5
			s-0.5-0.2-0.5-0.5V277.7L212.2,277.7L212.2,277.7z"/>
		<path d="M218.8,282.9L218.8,282.9c0-1.8,1.3-3.2,3.2-3.2c1.8,0,3.2,1.4,3.2,3.2l0,0c0,1.8-1.3,3.2-3.2,3.2
			C220,286,218.8,284.6,218.8,282.9z M224.1,282.9L224.1,282.9c0-1.3-0.9-2.3-2.2-2.3s-2.2,1.1-2.2,2.3l0,0c0,1.3,0.9,2.3,2.2,2.3
			C223.2,285.2,224.1,284.1,224.1,282.9z"/>
		<path d="M226.4,280.3c0-0.2,0.2-0.5,0.5-0.5c0.2,0,0.5,0.2,0.5,0.5v0.7c0.4-0.7,1.1-1.2,2.1-1.2c1.5,0,2.3,0.9,2.3,2.5v3.4
			c0,0.2-0.2,0.5-0.5,0.5c-0.2,0-0.5-0.2-0.5-0.5v-3.2c0-1.2-0.6-1.9-1.6-1.9s-1.8,0.7-1.8,1.9v3c0,0.2-0.2,0.5-0.5,0.5
			s-0.5-0.2-0.5-0.5v-5.3l0,0V280.3z"/>
		<path d="M236,286c-1.6,0-3-1.3-3-3.2l0,0c0-1.8,1.2-3.2,2.9-3.2s2.8,1.5,2.8,3c0,0.2-0.2,0.5-0.5,0.5h-4.3
			c0.1,1.3,1.1,2.1,2.1,2.1c0.7,0,1.3-0.4,1.8-0.7c0.1-0.1,0.1-0.1,0.2-0.1c0.2,0,0.4,0.1,0.4,0.4c0,0.1,0,0.2-0.1,0.4
			C237.6,285.7,236.9,286,236,286z M237.7,282.5c-0.1-1.1-0.7-2.1-1.9-2.1c-1.1,0-1.9,0.9-2,2.1H237.7z"/>
		<path d="M240.2,284.6c0.4,0,0.6,0.2,0.6,0.6v0.2c0,0.4-0.2,0.6-0.6,0.6c-0.4,0-0.6-0.2-0.6-0.6v-0.2
			C239.7,284.8,239.9,284.6,240.2,284.6z"/>
		<path d="M245.7,278.2c0-0.2,0.2-0.5,0.5-0.5h2.6c1.9,0,3,0.9,3,2.6l0,0c0,1.8-1.5,2.7-3.2,2.7h-2v2.5c0,0.2-0.2,0.5-0.5,0.5
			c-0.2,0-0.5-0.2-0.5-0.5L245.7,278.2L245.7,278.2z M248.7,282.2c1.4,0,2.2-0.7,2.2-1.8l0,0c0-1.2-0.9-1.8-2.2-1.8h-2.1v3.6
			L248.7,282.2L248.7,282.2z"/>
		<path d="M253.2,277.7c0-0.2,0.2-0.5,0.5-0.5c0.2,0,0.5,0.2,0.5,0.5v7.7c0,0.2-0.2,0.5-0.5,0.5c-0.2,0-0.5-0.2-0.5-0.5V277.7z"/>
		<path d="M258.6,286c-1.6,0-3-1.3-3-3.2l0,0c0-1.8,1.2-3.2,2.9-3.2s2.8,1.5,2.8,3c0,0.2-0.2,0.5-0.5,0.5h-4.3
			c0.1,1.3,1.1,2.1,2.1,2.1c0.7,0,1.3-0.4,1.8-0.7c0.1-0.1,0.1-0.1,0.2-0.1c0.2,0,0.4,0.1,0.4,0.4c0,0.1,0,0.2-0.1,0.4
			C260.2,285.7,259.6,286,258.6,286z M260.3,282.5c-0.1-1.1-0.7-2.1-1.9-2.1c-1.1,0-1.9,0.9-2,2.1H260.3z"/>
		<path d="M262.1,284.1L262.1,284.1c0-1.3,1.1-2,2.6-2c0.8,0,1.3,0.1,1.9,0.2v-0.2c0-1.1-0.7-1.6-1.8-1.6c-0.6,0-1.2,0.1-1.5,0.4
			h-0.1c-0.2,0-0.4-0.1-0.4-0.4s0.1-0.4,0.2-0.4c0.6-0.2,1.2-0.4,2-0.4s1.5,0.2,2,0.7c0.4,0.5,0.6,0.9,0.6,1.8v3.3
			c0,0.2-0.2,0.5-0.5,0.5s-0.5-0.2-0.5-0.5V285c-0.5,0.6-1.2,1.1-2.2,1.1C263.3,286,262.1,285.4,262.1,284.1z M266.5,283.7v-0.6
			c-0.5-0.1-1.1-0.2-1.8-0.2c-1.2,0-1.8,0.5-1.8,1.3l0,0c0,0.8,0.7,1.2,1.5,1.2C265.6,285.3,266.5,284.6,266.5,283.7z"/>
		<path d="M268.8,285.2c-0.1-0.1-0.1-0.2-0.1-0.4c0-0.2,0.1-0.4,0.4-0.4c0.1,0,0.1,0,0.2,0.1c0.6,0.5,1.3,0.7,1.9,0.7
			c0.7,0,1.3-0.4,1.3-0.9l0,0c0-0.6-0.7-0.8-1.5-1.1c-0.9-0.2-2-0.6-2-1.8l0,0c0-1.1,0.8-1.8,2.1-1.8c0.6,0,1.3,0.2,1.9,0.5
			c0.1,0.1,0.2,0.2,0.2,0.4c0,0.2-0.2,0.4-0.4,0.4c-0.1,0-0.1,0-0.2,0c-0.5-0.4-1.1-0.5-1.5-0.5c-0.7,0-1.2,0.4-1.2,0.9l0,0
			c0,0.6,0.7,0.8,1.5,1.1c0.9,0.2,2,0.6,2,1.8l0,0c0,1.2-0.9,1.8-2.1,1.8C270.3,286,269.3,285.7,268.8,285.2z"/>
		<path d="M277.2,286c-1.6,0-3-1.3-3-3.2l0,0c0-1.8,1.2-3.2,2.9-3.2s2.8,1.5,2.8,3c0,0.2-0.2,0.5-0.5,0.5h-4.3
			c0.1,1.3,1.1,2.1,2.1,2.1c0.7,0,1.3-0.4,1.8-0.7c0.1-0.1,0.1-0.1,0.2-0.1c0.2,0,0.4,0.1,0.4,0.4c0,0.1,0,0.2-0.1,0.4
			C278.9,285.7,278.2,286,277.2,286z M279.1,282.5c-0.1-1.1-0.7-2.1-1.9-2.1c-1.1,0-1.9,0.9-2,2.1H279.1z"/>
		<path d="M93.6,300.1c-1.6,0-3-1.3-3-3.2l0,0c0-1.8,1.2-3.2,2.9-3.2s2.8,1.5,2.8,3c0,0.2-0.2,0.5-0.5,0.5h-4.3
			c0.1,1.3,1.1,2.1,2.1,2.1c0.7,0,1.3-0.4,1.8-0.7c0.1-0.1,0.1-0.1,0.2-0.1c0.2,0,0.4,0.1,0.4,0.4c0,0.1,0,0.2-0.1,0.4
			C95.3,299.7,94.6,300.1,93.6,300.1z M95.3,296.6c-0.1-1.1-0.7-2.1-1.9-2.1c-1.1,0-1.9,0.9-2,2.1H95.3z"/>
		<path d="M97.5,294.3c0-0.2,0.2-0.5,0.5-0.5s0.5,0.2,0.5,0.5v0.7c0.4-0.7,1.1-1.2,2.1-1.2c1.4,0,2.3,0.9,2.3,2.5v3.4
			c0,0.2-0.2,0.5-0.5,0.5s-0.5-0.2-0.5-0.5v-3.2c0-1.2-0.6-1.9-1.6-1.9c-1.1,0-1.8,0.7-1.8,1.9v3c0,0.2-0.2,0.5-0.5,0.5
			c-0.2,0-0.5-0.2-0.5-0.5v-5.3l0,0V294.3z"/>
		<path d="M104.8,298.3v-3.6h-0.5c-0.2,0-0.4-0.2-0.4-0.4c0-0.2,0.2-0.4,0.4-0.4h0.5v-1.4c0-0.2,0.2-0.5,0.5-0.5s0.5,0.2,0.5,0.5
			v1.4h1.5c0.2,0,0.4,0.2,0.4,0.4c0,0.2-0.2,0.4-0.4,0.4h-1.5v3.5c0,0.7,0.4,1.1,1.1,1.1c0.4,0,0.5-0.1,0.6-0.1
			c0.2,0,0.4,0.2,0.4,0.4c0,0.1-0.1,0.4-0.2,0.4c-0.2,0.1-0.6,0.1-0.9,0.1C105.5,300.1,104.8,299.6,104.8,298.3z"/>
		<path d="M111.4,300.1c-1.6,0-3-1.3-3-3.2l0,0c0-1.8,1.2-3.2,2.9-3.2s2.8,1.5,2.8,3c0,0.2-0.2,0.5-0.5,0.5h-4.3
			c0.1,1.3,1.1,2.1,2.1,2.1c0.7,0,1.3-0.4,1.8-0.7c0.1-0.1,0.1-0.1,0.2-0.1c0.2,0,0.4,0.1,0.4,0.4c0,0.1,0,0.2-0.1,0.4
			C113.1,299.7,112.4,300.1,111.4,300.1z M113.2,296.6c-0.1-1.1-0.7-2.1-1.9-2.1c-1.1,0-1.9,0.9-2,2.1H113.2z"/>
		<path d="M115.3,294.3c0-0.2,0.2-0.5,0.5-0.5c0.2,0,0.5,0.2,0.5,0.5v1.2c0.5-1.1,1.3-1.6,2.1-1.6c0.2,0,0.5,0.2,0.5,0.5
			c0,0.2-0.1,0.5-0.4,0.5c-1.2,0.1-2.1,1.1-2.1,2.8v2.1c0,0.2-0.2,0.5-0.5,0.5s-0.5-0.2-0.5-0.5L115.3,294.3L115.3,294.3z"/>
		<path d="M123.4,298.3v-3.6H123c-0.2,0-0.4-0.2-0.4-0.4c0-0.2,0.2-0.4,0.4-0.4h0.5v-1.4c0-0.2,0.2-0.5,0.5-0.5
			c0.2,0,0.5,0.2,0.5,0.5v1.4h1.5c0.2,0,0.4,0.2,0.4,0.4c0,0.2-0.2,0.4-0.4,0.4h-1.6v3.5c0,0.7,0.4,1.1,1.1,1.1
			c0.4,0,0.5-0.1,0.6-0.1c0.2,0,0.4,0.2,0.4,0.4c0,0.1-0.1,0.4-0.2,0.4c-0.2,0.1-0.6,0.1-0.9,0.1
			C124.1,300.1,123.4,299.6,123.4,298.3z"/>
		<path d="M127.5,291.8c0-0.2,0.2-0.5,0.5-0.5s0.5,0.2,0.5,0.5v3.2c0.4-0.7,1.1-1.2,2.1-1.2c1.4,0,2.3,0.9,2.3,2.5v3.4
			c0,0.2-0.2,0.5-0.5,0.5s-0.5-0.2-0.5-0.5v-3.2c0-1.2-0.6-1.9-1.6-1.9c-1.1,0-1.8,0.7-1.8,1.9v3c0,0.2-0.2,0.5-0.5,0.5
			s-0.5-0.2-0.5-0.5V291.8L127.5,291.8L127.5,291.8z"/>
		<path d="M137.1,300.1c-1.6,0-3-1.3-3-3.2l0,0c0-1.8,1.2-3.2,2.9-3.2s2.8,1.5,2.8,3c0,0.2-0.2,0.5-0.5,0.5H135
			c0.1,1.3,1.1,2.1,2.1,2.1c0.7,0,1.3-0.4,1.8-0.7c0.1-0.1,0.1-0.1,0.2-0.1c0.2,0,0.4,0.1,0.4,0.4c0,0.1,0,0.2-0.1,0.4
			C138.8,299.7,138.1,300.1,137.1,300.1z M138.9,296.6c-0.1-1.1-0.7-2.1-1.9-2.1c-1.1,0-1.9,0.9-2,2.1H138.9z"/>
		<path d="M144.3,294.3c0-0.2,0.2-0.5,0.5-0.5s0.5,0.2,0.5,0.5v0.7c0.4-0.7,1.1-1.2,2.1-1.2c1.4,0,2.3,0.9,2.3,2.5v3.4
			c0,0.2-0.2,0.5-0.5,0.5s-0.5-0.2-0.5-0.5v-3.2c0-1.2-0.6-1.9-1.6-1.9c-1.1,0-1.8,0.7-1.8,1.9v3c0,0.2-0.2,0.5-0.5,0.5
			c-0.2,0-0.5-0.2-0.5-0.5v-5.3l0,0V294.3z"/>
		<path d="M156.4,299.6c0,0.2-0.2,0.5-0.5,0.5s-0.5-0.2-0.5-0.5v-0.7c-0.4,0.7-1.1,1.2-2.1,1.2c-1.4,0-2.3-0.9-2.3-2.5v-3.4
			c0-0.2,0.2-0.5,0.5-0.5s0.5,0.2,0.5,0.5v3.2c0,1.2,0.6,1.9,1.6,1.9c1.1,0,1.8-0.7,1.8-1.9v-3c0-0.2,0.2-0.5,0.5-0.5
			s0.5,0.2,0.5,0.5v5.3l0,0V299.6z"/>
		<path d="M158.1,294.3c0-0.2,0.2-0.5,0.5-0.5s0.5,0.2,0.5,0.5v0.6c0.4-0.6,0.9-1.2,2-1.2c0.9,0,1.6,0.6,2,1.2
			c0.5-0.7,1.1-1.2,2.1-1.2c1.4,0,2.2,0.9,2.2,2.5v3.4c0,0.2-0.2,0.5-0.5,0.5s-0.5-0.2-0.5-0.5v-3.2c0-1.2-0.6-1.9-1.5-1.9
			s-1.6,0.7-1.6,1.9v3c0,0.2-0.2,0.5-0.5,0.5s-0.5-0.2-0.5-0.5v-3.2c0-1.2-0.6-1.8-1.5-1.8s-1.6,0.8-1.6,1.9v3
			c0,0.2-0.2,0.5-0.5,0.5s-0.5-0.2-0.5-0.5v-5.2h-0.1L158.1,294.3L158.1,294.3z"/>
		<path d="M169,291.8c0-0.2,0.2-0.5,0.5-0.5s0.5,0.2,0.5,0.5v3.3c0.5-0.7,1.2-1.4,2.3-1.4c1.4,0,2.9,1.2,2.9,3.2l0,0
			c0,2-1.4,3.2-2.9,3.2c-1.2,0-1.9-0.6-2.3-1.3v0.7c0,0.2-0.2,0.5-0.5,0.5s-0.5-0.2-0.5-0.5V291.8z M174.1,296.9L174.1,296.9
			c0-1.4-0.9-2.3-2.1-2.3s-2.2,0.9-2.2,2.3l0,0c0,1.4,1.1,2.3,2.2,2.3S174.1,298.4,174.1,296.9z"/>
		<path d="M179,300.1c-1.6,0-3-1.3-3-3.2l0,0c0-1.8,1.2-3.2,2.9-3.2s2.8,1.5,2.8,3c0,0.2-0.2,0.5-0.5,0.5h-4.3
			c0.1,1.3,1.1,2.1,2.1,2.1c0.7,0,1.3-0.4,1.8-0.7c0.1-0.1,0.1-0.1,0.2-0.1c0.2,0,0.4,0.1,0.4,0.4c0,0.1,0,0.2-0.1,0.4
			C180.8,299.7,180.1,300.1,179,300.1z M180.9,296.6c-0.1-1.1-0.7-2.1-1.9-2.1c-1.1,0-1.9,0.9-2,2.1H180.9z"/>
		<path d="M183.1,294.3c0-0.2,0.2-0.5,0.5-0.5c0.2,0,0.5,0.2,0.5,0.5v1.2c0.5-1.1,1.3-1.6,2.1-1.6c0.2,0,0.5,0.2,0.5,0.5
			c0,0.2-0.1,0.5-0.4,0.5c-1.2,0.1-2.1,1.1-2.1,2.8v2.1c0,0.2-0.2,0.5-0.5,0.5s-0.5-0.2-0.5-0.5v-5.4L183.1,294.3L183.1,294.3z"/>
		<path d="M190.8,291.8c0-0.2,0.2-0.5,0.5-0.5s0.5,0.2,0.5,0.5v3.3c0.5-0.7,1.2-1.4,2.3-1.4c1.4,0,2.9,1.2,2.9,3.2l0,0
			c0,2-1.4,3.2-2.9,3.2c-1.2,0-1.9-0.6-2.3-1.3v0.7c0,0.2-0.2,0.5-0.5,0.5s-0.5-0.2-0.5-0.5V291.8z M195.9,296.9L195.9,296.9
			c0-1.4-0.9-2.3-2.1-2.3s-2.2,0.9-2.2,2.3l0,0c0,1.4,1.1,2.3,2.2,2.3S195.9,298.4,195.9,296.9z"/>
		<path d="M200.9,300.1c-1.6,0-3-1.3-3-3.2l0,0c0-1.8,1.2-3.2,2.9-3.2s2.8,1.5,2.8,3c0,0.2-0.2,0.5-0.5,0.5h-4.3
			c0.1,1.3,1.1,2.1,2.1,2.1c0.7,0,1.3-0.4,1.8-0.7c0.1-0.1,0.1-0.1,0.2-0.1c0.2,0,0.4,0.1,0.4,0.4c0,0.1,0,0.2-0.1,0.4
			C202.6,299.7,201.9,300.1,200.9,300.1z M202.7,296.6c-0.1-1.1-0.7-2.1-1.9-2.1c-1.1,0-1.9,0.9-2,2.1H202.7z"/>
		<path d="M204.9,291.8c0-0.2,0.2-0.5,0.5-0.5c0.2,0,0.5,0.2,0.5,0.5v7.7c0,0.2-0.2,0.5-0.5,0.5c-0.2,0-0.5-0.2-0.5-0.5V291.8z"/>
		<path d="M207.3,296.9L207.3,296.9c0-1.8,1.3-3.2,3.2-3.2c1.8,0,3.2,1.4,3.2,3.2l0,0c0,1.8-1.3,3.2-3.2,3.2
			C208.7,300.1,207.3,298.7,207.3,296.9z M212.7,296.9L212.7,296.9c0-1.3-0.9-2.3-2.2-2.3s-2.2,1.1-2.2,2.3l0,0
			c0,1.3,0.9,2.3,2.2,2.3S212.7,298.2,212.7,296.9z"/>
		<path d="M216.2,299.6l-1.9-5.2c0-0.1,0-0.1,0-0.2c0-0.2,0.2-0.5,0.5-0.5c0.2,0,0.4,0.1,0.5,0.4l1.5,4.6l1.5-4.6
			c0.1-0.2,0.2-0.4,0.5-0.4l0,0c0.2,0,0.4,0.1,0.5,0.4l1.5,4.6l1.5-4.6c0-0.2,0.2-0.4,0.5-0.4c0.2,0,0.5,0.2,0.5,0.5
			c0,0.1,0,0.2-0.1,0.2l-1.9,5.2c-0.1,0.2-0.2,0.4-0.5,0.4l0,0c-0.2,0-0.4-0.1-0.5-0.4l-1.5-4.5l-1.5,4.5c-0.1,0.2-0.2,0.4-0.5,0.4
			l0,0C216.4,300.1,216.3,300,216.2,299.6z"/>
		<path d="M224,298.7c0.4,0,0.6,0.2,0.6,0.6v0.2c0,0.4-0.2,0.6-0.6,0.6s-0.6-0.2-0.6-0.6v-0.2C223.6,298.9,223.8,298.7,224,298.7z"
			/>
	</g>
</g>
<g id="Layer_4">
</g>
<g>
	<path className="st18" d="M89.7,253.1v-6.9c0-0.4,0.3-0.7,0.7-0.7h4.9c0.4,0,0.7,0.3,0.7,0.7s-0.3,0.7-0.7,0.7h-4.1v2.2h3.6
		c0.4,0,0.7,0.3,0.7,0.7s-0.3,0.6-0.7,0.6h-3.6v2.3h4.2c0.4,0,0.7,0.3,0.7,0.7s-0.3,0.7-0.7,0.7h-4.9
		C90,253.8,89.7,253.5,89.7,253.1z"/>
	<path className="st18" d="M97.3,248.2c0-0.4,0.3-0.7,0.7-0.7c0.4,0,0.7,0.3,0.7,0.7v0.3c0.4-0.6,1-1.1,2-1.1c1.4,0,2.3,1,2.3,2.4v3.4
		c0,0.4-0.3,0.7-0.7,0.7c-0.4,0-0.7-0.3-0.7-0.7v-2.9c0-1-0.5-1.5-1.4-1.5c-0.8,0-1.4,0.6-1.4,1.6v2.9c0,0.4-0.3,0.7-0.7,0.7
		c-0.4,0-0.7-0.3-0.7-0.7v-5.1L97.3,248.2L97.3,248.2z"/>
	<path className="st18" d="M104.8,252.1v-3.3h-0.2c-0.3,0-0.6-0.3-0.6-0.6s0.3-0.6,0.6-0.6h0.2v-1.1c0-0.4,0.3-0.7,0.7-0.7
		c0.4,0,0.7,0.3,0.7,0.7v1.1h1.1c0.3,0,0.6,0.3,0.6,0.6s-0.3,0.6-0.6,0.6h-1.1v3.1c0,0.6,0.3,0.8,0.8,0.8c0.2,0,0.3,0,0.4,0
		c0.3,0,0.6,0.3,0.6,0.6s-0.2,0.5-0.4,0.6c-0.3,0.1-0.6,0.2-1,0.2C105.6,253.9,104.8,253.5,104.8,252.1z"/>
	<path className="st18" d="M112,254c-1.8,0-3.3-1.3-3.3-3.3l0,0c0-1.8,1.3-3.3,3.1-3.3c2,0,3,1.7,3,3.1c0,0.4-0.3,0.7-0.7,0.7h-4
		c0.2,1,0.9,1.6,1.8,1.6c0.6,0,1.1-0.2,1.5-0.6c0.1-0.1,0.2-0.1,0.4-0.1c0.3,0,0.6,0.3,0.6,0.6c0,0.2-0.1,0.3-0.2,0.4
		C113.7,253.6,112.9,254,112,254z M113.4,250.2c-0.1-0.9-0.6-1.7-1.6-1.7c-0.9,0-1.5,0.7-1.6,1.7H113.4z"/>
	<path className="st18" d="M116.1,248.2c0-0.4,0.3-0.7,0.7-0.7c0.4,0,0.7,0.3,0.7,0.7v0.6c0.3-0.8,1-1.4,1.6-1.4c0.5,0,0.7,0.3,0.7,0.7
		s-0.3,0.6-0.6,0.7c-1,0.2-1.7,1-1.7,2.5v1.9c0,0.4-0.3,0.7-0.7,0.7c-0.4,0-0.7-0.3-0.7-0.7V248.2z"/>
	<path className="st18" d="M123.9,249.7L123.9,249.7c0-2.4,1.8-4.4,4.4-4.4c2.6,0,4.4,2,4.4,4.3l0,0c0,2.4-1.8,4.3-4.4,4.3
		C125.7,254,123.9,252,123.9,249.7z M131.2,249.7L131.2,249.7c0-1.7-1.2-3-2.9-3s-2.8,1.3-2.8,3l0,0c0,1.6,1.2,3,2.9,3
		C130,252.6,131.2,251.3,131.2,249.7z"/>
	<path className="st18" d="M135.9,246.8h-2c-0.4,0-0.7-0.3-0.7-0.7s0.3-0.7,0.7-0.7h5.6c0.4,0,0.7,0.3,0.7,0.7s-0.3,0.7-0.7,0.7h-2.1
		v6.4c0,0.4-0.3,0.7-0.7,0.7s-0.7-0.3-0.7-0.7v-6.4H135.9z"/>
	<path className="st18" d="M141.3,246.2c0-0.4,0.3-0.7,0.7-0.7h2.6c2,0,3.2,1.1,3.2,2.8l0,0c0,1.9-1.5,2.9-3.4,2.9h-1.7v2
		c0,0.4-0.3,0.7-0.7,0.7s-0.7-0.3-0.7-0.7L141.3,246.2L141.3,246.2z M144.5,249.8c1.1,0,1.8-0.6,1.8-1.5l0,0c0-1-0.7-1.5-1.8-1.5
		h-1.7v3H144.5z"/>
	<path className="st18" d="M155.2,255.4c-2-1.2-3-2.8-3-5s1.1-3.8,3-5c0,0,0.2-0.1,0.3-0.1c0.3,0,0.6,0.3,0.6,0.6c0,0.2-0.1,0.4-0.2,0.5
		c-1.5,1.1-2.3,2.3-2.3,4s0.7,2.9,2.3,4c0.1,0.1,0.2,0.3,0.2,0.5c0,0.3-0.3,0.6-0.6,0.6C155.4,255.4,155.2,255.4,155.2,255.4z"/>
	<path className="st18" d="M156.8,249.7L156.8,249.7c0-2.4,1.8-4.4,4.4-4.4s4.4,2,4.4,4.3l0,0c0,2.4-1.8,4.3-4.4,4.3
		C158.6,254,156.8,252,156.8,249.7z M164,249.7L164,249.7c0-1.7-1.2-3-2.9-3s-2.8,1.3-2.8,3l0,0c0,1.6,1.2,3,2.9,3
		C162.9,252.6,164,251.3,164,249.7z"/>
	<path className="st18" d="M167,248.2c0-0.4,0.3-0.7,0.7-0.7s0.7,0.3,0.7,0.7v0.3c0.4-0.6,1-1.1,2-1.1c1.4,0,2.3,1,2.3,2.4v3.4
		c0,0.4-0.3,0.7-0.7,0.7s-0.7-0.3-0.7-0.7v-2.9c0-1-0.5-1.5-1.4-1.5c-0.8,0-1.4,0.6-1.4,1.6v2.9c0,0.4-0.3,0.7-0.7,0.7
		s-0.7-0.3-0.7-0.7v-5.1L167,248.2L167,248.2z"/>
	<path className="st18" d="M177.1,254c-1.8,0-3.3-1.3-3.3-3.3l0,0c0-1.8,1.3-3.3,3.1-3.3c2,0,3,1.7,3,3.1c0,0.4-0.3,0.7-0.7,0.7h-4
		c0.2,1,0.9,1.6,1.8,1.6c0.6,0,1.1-0.2,1.5-0.6c0.1-0.1,0.2-0.1,0.4-0.1c0.3,0,0.6,0.3,0.6,0.6c0,0.2-0.1,0.3-0.2,0.4
		C178.8,253.6,178,254,177.1,254z M178.5,250.2c-0.1-0.9-0.6-1.7-1.6-1.7c-0.9,0-1.5,0.7-1.6,1.7H178.5z"/>
	<path className="st18" d="M186.8,246.8h-2c-0.4,0-0.7-0.3-0.7-0.7s0.3-0.7,0.7-0.7h5.6c0.4,0,0.7,0.3,0.7,0.7s-0.3,0.7-0.7,0.7h-2.1
		v6.4c0,0.4-0.3,0.7-0.7,0.7s-0.7-0.3-0.7-0.7v-6.4H186.8z"/>
	<path className="st18" d="M191.8,245.8c0-0.4,0.4-0.7,0.8-0.7s0.8,0.3,0.8,0.7v0.1c0,0.4-0.4,0.7-0.8,0.7S191.8,246.3,191.8,245.8
		L191.8,245.8z M191.9,248.2c0-0.4,0.3-0.7,0.7-0.7s0.7,0.3,0.7,0.7v5c0,0.4-0.3,0.7-0.7,0.7s-0.7-0.3-0.7-0.7V248.2z"/>
	<path className="st18" d="M195,248.2c0-0.4,0.3-0.7,0.7-0.7s0.7,0.3,0.7,0.7v0.3c0.4-0.6,1-1.1,1.9-1.1s1.6,0.4,1.9,1.1
		c0.5-0.7,1.2-1.1,2.1-1.1c1.4,0,2.2,0.9,2.2,2.4v3.4c0,0.4-0.3,0.7-0.7,0.7s-0.7-0.3-0.7-0.7v-2.9c0-1-0.5-1.5-1.3-1.5
		s-1.4,0.6-1.4,1.6v2.9c0,0.4-0.3,0.7-0.7,0.7s-0.7-0.3-0.7-0.7v-3c0-1-0.5-1.5-1.3-1.5s-1.4,0.6-1.4,1.6v2.9c0,0.4-0.3,0.7-0.7,0.7
		s-0.7-0.3-0.7-0.7L195,248.2L195,248.2z"/>
	<path className="st18" d="M209.1,254c-1.8,0-3.3-1.3-3.3-3.3l0,0c0-1.8,1.3-3.3,3.1-3.3c2,0,3,1.7,3,3.1c0,0.4-0.3,0.7-0.7,0.7h-4
		c0.2,1,0.9,1.6,1.8,1.6c0.6,0,1.1-0.2,1.5-0.6c0.1-0.1,0.2-0.1,0.4-0.1c0.3,0,0.6,0.3,0.6,0.6c0,0.2-0.1,0.3-0.2,0.4
		C210.8,253.6,210.1,254,209.1,254z M210.5,250.2c-0.1-0.9-0.6-1.7-1.6-1.7c-0.9,0-1.5,0.7-1.6,1.7H210.5z"/>
	<path className="st18" d="M216.7,246.2c0-0.4,0.3-0.7,0.7-0.7h2.6c2,0,3.2,1.1,3.2,2.8l0,0c0,1.9-1.5,2.9-3.4,2.9h-1.7v2
		c0,0.4-0.3,0.7-0.7,0.7s-0.7-0.3-0.7-0.7L216.7,246.2L216.7,246.2z M219.9,249.8c1.1,0,1.8-0.6,1.8-1.5l0,0c0-1-0.7-1.5-1.8-1.5
		h-1.7v3H219.9z"/>
	<path className="st18" d="M223.8,252L223.8,252c0-1.4,1.1-2.1,2.6-2.1c0.7,0,1.2,0.1,1.7,0.3V250c0-0.9-0.6-1.4-1.6-1.4
		c-0.6,0-1,0.1-1.4,0.3c-0.1,0-0.2,0-0.2,0c-0.3,0-0.6-0.3-0.6-0.6s0.2-0.5,0.4-0.6c0.6-0.2,1.2-0.4,2-0.4c0.9,0,1.7,0.3,2.1,0.7
		c0.5,0.5,0.7,1.1,0.7,2v3.1c0,0.4-0.3,0.7-0.7,0.7s-0.7-0.3-0.7-0.6V253c-0.4,0.5-1.1,0.9-2.1,0.9C224.8,254,223.8,253.3,223.8,252
		z M228.1,251.5v-0.4c-0.4-0.1-0.9-0.3-1.4-0.3c-0.9,0-1.5,0.4-1.5,1.1l0,0c0,0.6,0.5,1,1.2,1C227.4,252.9,228.1,252.3,228.1,251.5z
		"/>
	<path className="st18" d="M230.8,253.2c-0.2-0.1-0.3-0.3-0.3-0.5c0-0.3,0.3-0.6,0.6-0.6c0.1,0,0.2,0,0.3,0.1c0.6,0.4,1.2,0.6,1.8,0.6
		s1-0.3,1-0.7l0,0c0-0.5-0.7-0.7-1.4-0.9c-0.9-0.3-2-0.6-2-1.9l0,0c0-1.2,1-1.9,2.3-1.9c0.7,0,1.4,0.2,2,0.5
		c0.2,0.1,0.3,0.3,0.3,0.6s-0.3,0.6-0.6,0.6c-0.1,0-0.2,0-0.3-0.1c-0.5-0.3-1-0.4-1.5-0.4c-0.6,0-0.9,0.3-0.9,0.6l0,0
		c0,0.5,0.7,0.7,1.4,0.9c0.9,0.3,2,0.7,2,1.8l0,0c0,1.3-1,2-2.4,2C232.4,253.9,231.5,253.7,230.8,253.2z"/>
	<path className="st18" d="M236.4,253.2c-0.2-0.1-0.3-0.3-0.3-0.5c0-0.3,0.3-0.6,0.6-0.6c0.1,0,0.2,0,0.3,0.1c0.6,0.4,1.2,0.6,1.8,0.6
		s1-0.3,1-0.7l0,0c0-0.5-0.7-0.7-1.4-0.9c-0.9-0.3-2-0.6-2-1.9l0,0c0-1.2,1-1.9,2.3-1.9c0.7,0,1.4,0.2,2,0.5
		c0.2,0.1,0.3,0.3,0.3,0.6s-0.3,0.6-0.6,0.6c-0.1,0-0.2,0-0.3-0.1c-0.5-0.3-1-0.4-1.5-0.4c-0.6,0-0.9,0.3-0.9,0.6l0,0
		c0,0.5,0.7,0.7,1.4,0.9c0.9,0.3,2,0.7,2,1.8l0,0c0,1.3-1,2-2.4,2C238,253.9,237.2,253.7,236.4,253.2z"/>
	<path className="st18" d="M243.7,253.3l-1.7-4.8c0-0.1-0.1-0.3-0.1-0.4c0-0.3,0.3-0.7,0.7-0.7s0.6,0.2,0.7,0.6l1.2,3.8l1.2-3.8
		c0.1-0.3,0.4-0.6,0.7-0.6h0.1c0.4,0,0.6,0.2,0.7,0.6l1.2,3.8l1.2-3.8c0.1-0.3,0.3-0.6,0.7-0.6s0.7,0.3,0.7,0.7c0,0.1,0,0.3-0.1,0.3
		l-1.7,4.9c-0.2,0.4-0.5,0.6-0.8,0.6l0,0c-0.4,0-0.7-0.2-0.8-0.6l-1.2-3.8l-1.2,3.8c-0.1,0.4-0.4,0.6-0.8,0.6l0,0
		C244.1,253.9,243.8,253.7,243.7,253.3z"/>
	<path className="st18" d="M251.8,250.7L251.8,250.7c0-1.8,1.4-3.3,3.4-3.3c2,0,3.4,1.5,3.4,3.3l0,0c0,1.8-1.4,3.3-3.4,3.3
		C253.2,254,251.8,252.5,251.8,250.7z M257.1,250.7L257.1,250.7c0-1.1-0.8-2.1-1.9-2.1c-1.2,0-1.9,0.9-1.9,2l0,0c0,1.1,0.8,2,1.9,2
		C256.4,252.7,257.1,251.8,257.1,250.7z"/>
	<path className="st18" d="M259.8,248.2c0-0.4,0.3-0.7,0.7-0.7c0.4,0,0.7,0.3,0.7,0.7v0.6c0.3-0.8,1-1.4,1.6-1.4c0.5,0,0.7,0.3,0.7,0.7
		s-0.3,0.6-0.6,0.7c-1,0.2-1.7,1-1.7,2.5v1.9c0,0.4-0.3,0.7-0.7,0.7c-0.4,0-0.7-0.3-0.7-0.7V248.2z"/>
	<path className="st18" d="M270.6,253.2c0,0.4-0.3,0.7-0.7,0.7c-0.4,0-0.7-0.3-0.7-0.7v-0.4c-0.5,0.7-1.1,1.2-2.2,1.2
		c-1.5,0-2.9-1.2-2.9-3.3l0,0c0-2.1,1.4-3.3,2.9-3.3c1,0,1.7,0.5,2.2,1.1v-2.7c0-0.4,0.3-0.7,0.7-0.7c0.4,0,0.7,0.3,0.7,0.7V253.2z
		 M265.5,250.6L265.5,250.6c0,1.2,0.8,2.1,1.8,2.1s1.8-0.8,1.8-2l0,0c0-1.2-0.9-2-1.8-2C266.3,248.6,265.5,249.4,265.5,250.6z"/>
	<path className="st18" d="M271.8,254.9c0-0.2,0.1-0.4,0.3-0.5c1.5-1.1,2.3-2.3,2.3-4s-0.7-2.9-2.3-4c-0.1-0.1-0.3-0.3-0.3-0.5
		c0-0.3,0.3-0.6,0.6-0.6c0.2,0,0.3,0,0.3,0.1c2,1.2,3.1,2.8,3.1,5s-1.1,3.8-3.1,5c0,0-0.2,0.1-0.3,0.1
		C272.1,255.4,271.8,255.2,271.8,254.9z"/>
</g>
</svg>
